<svg xmlns="http://www.w3.org/2000/svg" xmlns:xlink="http://www.w3.org/1999/xlink" width="400" zoomAndPan="magnify" viewBox="0 0 300 299.999988" height="400" preserveAspectRatio="xMidYMid meet" version="1.0"><defs><g/><clipPath id="53fd3d113e"><path d="M 20.917969 20.917969 L 279.082031 20.917969 L 279.082031 279.082031 L 20.917969 279.082031 Z M 20.917969 20.917969 " clip-rule="nonzero"/></clipPath><clipPath id="1ed5132b1b"><path d="M 150 20.917969 C 78.710938 20.917969 20.917969 78.710938 20.917969 150 C 20.917969 221.289062 78.710938 279.082031 150 279.082031 C 221.289062 279.082031 279.082031 221.289062 279.082031 150 C 279.082031 78.710938 221.289062 20.917969 150 20.917969 Z M 150 20.917969 " clip-rule="nonzero"/></clipPath><clipPath id="9733caebb2"><path d="M 195 243 L 206 243 L 206 256 L 195 256 Z M 195 243 " clip-rule="nonzero"/></clipPath><clipPath id="376dff7f1b"><path d="M 190.800781 245.183594 L 204.886719 243.046875 L 206.578125 254.167969 L 192.488281 256.308594 Z M 190.800781 245.183594 " clip-rule="nonzero"/></clipPath><clipPath id="597f5accab"><path d="M 190.800781 245.183594 L 204.886719 243.046875 L 206.578125 254.167969 L 192.488281 256.308594 Z M 190.800781 245.183594 " clip-rule="nonzero"/></clipPath><clipPath id="176fe5bac9"><path d="M 191 245 L 202 245 L 202 254 L 191 254 Z M 191 245 " clip-rule="nonzero"/></clipPath><clipPath id="a2256012a6"><path d="M 190.800781 245.183594 L 204.886719 243.046875 L 206.578125 254.167969 L 192.488281 256.308594 Z M 190.800781 245.183594 " clip-rule="nonzero"/></clipPath><clipPath id="ff8d8ec259"><path d="M 190.800781 245.183594 L 204.886719 243.046875 L 206.578125 254.167969 L 192.488281 256.308594 Z M 190.800781 245.183594 " clip-rule="nonzero"/></clipPath><clipPath id="14f478cd0e"><path d="M 193 245 L 202 245 L 202 254 L 193 254 Z M 193 245 " clip-rule="nonzero"/></clipPath><clipPath id="f9832488f2"><path d="M 190.800781 245.183594 L 204.886719 243.046875 L 206.578125 254.167969 L 192.488281 256.308594 Z M 190.800781 245.183594 " clip-rule="nonzero"/></clipPath><clipPath id="aa44f02aa7"><path d="M 190.800781 245.183594 L 204.886719 243.046875 L 206.578125 254.167969 L 192.488281 256.308594 Z M 190.800781 245.183594 " clip-rule="nonzero"/></clipPath><clipPath id="d1390644dc"><path d="M 193 244 L 205 244 L 205 255 L 193 255 Z M 193 244 " clip-rule="nonzero"/></clipPath><clipPath id="7f655529bb"><path d="M 190.800781 245.183594 L 204.886719 243.046875 L 206.578125 254.167969 L 192.488281 256.308594 Z M 190.800781 245.183594 " clip-rule="nonzero"/></clipPath><clipPath id="c3498ecb08"><path d="M 190.800781 245.183594 L 204.886719 243.046875 L 206.578125 254.167969 L 192.488281 256.308594 Z M 190.800781 245.183594 " clip-rule="nonzero"/></clipPath><clipPath id="15e3d4c926"><path d="M 183 255 L 194 255 L 194 267 L 183 267 Z M 183 255 " clip-rule="nonzero"/></clipPath><clipPath id="2c2679ffe0"><path d="M 178.839844 256.308594 L 192.925781 254.171875 L 194.617188 265.292969 L 180.527344 267.433594 Z M 178.839844 256.308594 " clip-rule="nonzero"/></clipPath><clipPath id="535d2fdb52"><path d="M 178.839844 256.308594 L 192.925781 254.171875 L 194.617188 265.292969 L 180.527344 267.433594 Z M 178.839844 256.308594 " clip-rule="nonzero"/></clipPath><clipPath id="91cd0d7e9b"><path d="M 179 256 L 190 256 L 190 265 L 179 265 Z M 179 256 " clip-rule="nonzero"/></clipPath><clipPath id="6989ae7b06"><path d="M 178.839844 256.308594 L 192.925781 254.171875 L 194.617188 265.292969 L 180.527344 267.433594 Z M 178.839844 256.308594 " clip-rule="nonzero"/></clipPath><clipPath id="5664dc3c44"><path d="M 178.839844 256.308594 L 192.925781 254.171875 L 194.617188 265.292969 L 180.527344 267.433594 Z M 178.839844 256.308594 " clip-rule="nonzero"/></clipPath><clipPath id="8248c651f3"><path d="M 181 256 L 190 256 L 190 266 L 181 266 Z M 181 256 " clip-rule="nonzero"/></clipPath><clipPath id="64c9bb4f53"><path d="M 178.839844 256.308594 L 192.925781 254.171875 L 194.617188 265.292969 L 180.527344 267.433594 Z M 178.839844 256.308594 " clip-rule="nonzero"/></clipPath><clipPath id="68f56556e7"><path d="M 178.839844 256.308594 L 192.925781 254.171875 L 194.617188 265.292969 L 180.527344 267.433594 Z M 178.839844 256.308594 " clip-rule="nonzero"/></clipPath><clipPath id="548181882e"><path d="M 181 255 L 193 255 L 193 267 L 181 267 Z M 181 255 " clip-rule="nonzero"/></clipPath><clipPath id="f549db8eec"><path d="M 178.839844 256.308594 L 192.925781 254.171875 L 194.617188 265.292969 L 180.527344 267.433594 Z M 178.839844 256.308594 " clip-rule="nonzero"/></clipPath><clipPath id="b97c18ef82"><path d="M 178.839844 256.308594 L 192.925781 254.171875 L 194.617188 265.292969 L 180.527344 267.433594 Z M 178.839844 256.308594 " clip-rule="nonzero"/></clipPath></defs><rect x="-30" width="360" fill="#ffffff" y="-29.999999" height="359.999986" fill-opacity="1"/><rect x="-30" width="360" fill="#fff1eb" y="-29.999999" height="359.999986" fill-opacity="1"/><g clip-path="url(#53fd3d113e)"><g clip-path="url(#1ed5132b1b)"><path fill="#fff1eb" d="M 20.917969 20.917969 L 279.082031 20.917969 L 279.082031 279.082031 L 20.917969 279.082031 Z M 20.917969 20.917969 " fill-opacity="1" fill-rule="nonzero"/></g></g><path fill="#f1bfa8" d="M 121.351562 72.816406 C 119.679688 67.882812 119.378906 62.5625 119.464844 57.371094 C 119.59375 48.234375 124.441406 31.542969 137.222656 35.75 C 147.605469 39.179688 155.285156 57.371094 155.628906 67.109375 C 155.800781 72.34375 154.214844 77.792969 150.609375 81.652344 C 145.675781 86.886719 137.097656 88.300781 130.789062 84.828125 C 126.199219 82.382812 123.023438 77.75 121.351562 72.816406 Z M 182.570312 87.058594 C 187.675781 92.164062 196.300781 92.722656 202.605469 89.203125 C 208.914062 85.6875 212.902344 78.820312 214.105469 71.699219 C 215.777344 61.746094 212.730469 40.296875 200.71875 37.164062 C 187.804688 33.773438 177.121094 43.640625 175.105469 55.65625 C 173.734375 63.976562 174.847656 72.6875 178.28125 80.410156 C 179.398438 82.8125 180.726562 85.171875 182.570312 87.058594 Z M 240.960938 88.6875 C 225.257812 86.671875 221.140625 107.996094 224.957031 118.847656 C 226.375 122.796875 228.863281 126.785156 232.894531 127.902344 C 234.4375 128.328125 236.070312 128.285156 237.613281 128.070312 C 243.621094 127.300781 249.367188 124.125 252.84375 119.191406 C 259.878906 109.28125 254.171875 90.40625 240.960938 88.6875 Z M 212.429688 146.21875 C 202.863281 137.8125 192.222656 129.917969 186.519531 118.546875 C 185.230469 115.972656 184.203125 113.183594 182.527344 110.824219 C 177.378906 103.488281 166.527344 101.902344 158.289062 103.617188 C 148.421875 105.675781 139.796875 111.984375 132.976562 119.234375 C 124.355469 128.457031 117.875 139.441406 109.597656 148.964844 C 105.433594 153.726562 100.757812 158.1875 97.925781 163.808594 C 94.023438 171.574219 94.109375 181.140625 97.882812 188.992188 C 101.703125 196.800781 109.039062 202.761719 117.445312 205.078125 C 127.101562 207.738281 137.351562 205.765625 147.007812 203.105469 C 156.660156 200.445312 166.269531 197.144531 176.265625 197.101562 C 186.132812 197.058594 195.742188 200.230469 205.566406 200.660156 C 215.390625 201.089844 226.589844 197.742188 230.835938 188.863281 C 232.507812 185.386719 232.894531 181.441406 232.507812 177.625 C 231.265625 164.96875 221.996094 154.628906 212.429688 146.21875 Z M 212.429688 146.21875 " fill-opacity="1" fill-rule="nonzero"/><path fill="#cbcfbf" d="M 173.261719 52.007812 C 174.078125 52.308594 174.933594 52.652344 175.75 52.996094 C 184.074219 56.46875 186.347656 70.371094 190.679688 78.222656 C 194.199219 84.527344 200.675781 82.941406 200.332031 90.234375 C 200.160156 93.835938 199.773438 97.441406 199.261719 100.957031 C 197.929688 110.570312 196.257812 120.09375 194.242188 129.574219 C 193.941406 131.03125 180.683594 130.390625 180.339844 131.847656 C 177.25 145.363281 174.546875 146.949219 163.609375 155.441406 C 154.726562 162.351562 152.882812 159.820312 141.730469 161.449219 C 127.828125 163.507812 123.367188 173.761719 110.410156 168.3125 C 108.136719 167.371094 97.070312 177.023438 94.964844 175.734375 C 89.820312 172.476562 85.183594 168.3125 80.636719 164.238281 C 73.34375 157.675781 66.050781 151.109375 58.757812 144.546875 C 53.824219 140.042969 48.761719 135.410156 45.5 129.574219 C 38.59375 117.132812 41.167969 101.34375 47.605469 88.644531 C 61.589844 61.058594 91.277344 47.289062 121.910156 44.972656 C 130.703125 44.285156 135.765625 69.640625 148.25 45.746094 C 157.003906 46.945312 165.453125 49.046875 173.261719 52.007812 Z M 173.261719 52.007812 " fill-opacity="1" fill-rule="evenodd"/><path fill="#cb836d" d="M 87.585938 133.261719 C 81.152344 129.1875 75.917969 123.007812 73.644531 115.714844 C 71.371094 108.421875 72.230469 100.101562 76.476562 93.792969 C 80.25 88.214844 88.660156 81.996094 95.050781 86.929688 C 100.886719 91.433594 105.433594 101.859375 107.320312 108.679688 C 109.125 115.289062 109.382812 122.367188 107.320312 128.886719 C 106.765625 130.558594 106.078125 132.234375 104.917969 133.5625 C 102.816406 135.921875 99.472656 136.867188 96.339844 136.609375 C 93.207031 136.308594 90.246094 134.9375 87.585938 133.261719 Z M 101.574219 179.167969 C 114.53125 184.617188 129.289062 182.683594 143.1875 180.625 C 154.34375 178.996094 166.011719 177.109375 174.890625 170.203125 C 185.832031 161.707031 190.25 147.421875 193.339844 133.90625 C 193.683594 132.492188 193.984375 131.03125 194.285156 129.574219 C 191.28125 126.226562 188.578125 122.625 186.5625 118.546875 C 185.273438 115.972656 184.246094 113.183594 182.570312 110.824219 C 177.421875 103.488281 166.570312 101.902344 158.332031 103.617188 C 148.464844 105.675781 139.839844 111.984375 133.019531 119.234375 C 124.398438 128.457031 117.917969 139.441406 109.640625 148.964844 C 105.476562 153.726562 100.800781 158.1875 97.96875 163.808594 C 96.125 167.5 95.179688 171.617188 95.09375 175.734375 C 97.113281 177.023438 99.257812 178.222656 101.574219 179.167969 Z M 155.585938 67.152344 C 155.414062 61.359375 152.625 52.652344 148.25 45.789062 C 139.625 44.628906 130.746094 44.328125 121.910156 45.015625 C 120.234375 49.175781 119.464844 53.851562 119.421875 57.414062 C 119.335938 62.648438 119.636719 67.925781 121.308594 72.859375 C 122.980469 77.792969 126.15625 82.382812 130.746094 84.871094 C 137.054688 88.300781 145.632812 86.929688 150.566406 81.695312 C 154.171875 77.835938 155.757812 72.386719 155.585938 67.152344 Z M 200.332031 90.234375 C 200.632812 82.941406 199.859375 75.691406 196.386719 69.382812 C 192.007812 61.574219 184.074219 56.511719 175.75 52.996094 C 175.492188 53.851562 175.320312 54.710938 175.148438 55.613281 C 173.777344 63.933594 174.890625 72.644531 178.324219 80.367188 C 179.398438 82.769531 180.726562 85.128906 182.570312 87.015625 C 187.074219 91.5625 194.367188 92.507812 200.332031 90.234375 Z M 200.332031 90.234375 " fill-opacity="1" fill-rule="nonzero"/><path fill="#51180f" d="M 230.40625 125.113281 C 228.648438 125.113281 226.972656 124.726562 225.515625 123.996094 C 219.851562 121.121094 218.351562 113.699219 218.867188 107.695312 C 219.378906 101.859375 221.695312 90.875 227.230469 86.800781 C 229.246094 85.34375 231.480469 84.871094 233.925781 85.429688 C 238.988281 86.542969 244.347656 90.960938 247.523438 96.625 C 250.054688 101.128906 250.785156 105.675781 249.539062 109.367188 C 247.738281 114.730469 243.921875 119.492188 239.113281 122.453125 C 236.199219 124.210938 233.195312 125.113281 230.40625 125.113281 Z M 231.992188 86.457031 C 230.535156 86.457031 229.203125 86.929688 227.960938 87.832031 C 222.769531 91.648438 220.582031 102.160156 220.109375 107.824219 C 219.636719 113.398438 220.96875 120.308594 226.074219 122.839844 C 229.460938 124.554688 234.097656 123.996094 238.386719 121.292969 C 242.933594 118.503906 246.535156 113.957031 248.253906 108.894531 C 249.367188 105.550781 248.726562 101.386719 246.367188 97.183594 C 243.40625 91.90625 238.257812 87.660156 233.625 86.585938 C 233.066406 86.542969 232.550781 86.457031 231.992188 86.457031 Z M 85.570312 131.117188 C 84.542969 131.117188 83.46875 130.988281 82.480469 130.730469 C 80.464844 130.175781 78.449219 129.101562 76.476562 127.429688 C 70.898438 122.753906 67.550781 115.160156 67.550781 107.136719 C 67.550781 100.871094 69.914062 89.117188 76.261719 84.183594 C 77.890625 82.898438 79.652344 82.382812 81.453125 82.683594 C 86 83.367188 89.820312 88.859375 92.605469 92.894531 C 92.949219 93.363281 93.25 93.792969 93.507812 94.222656 C 97.242188 99.457031 99.472656 104.304688 100.371094 109.023438 C 101.488281 114.945312 100.371094 120.777344 97.328125 124.984375 C 94.496094 128.800781 89.988281 131.117188 85.570312 131.117188 Z M 80.507812 83.882812 C 79.351562 83.882812 78.191406 84.3125 77.078125 85.214844 C 71.757812 89.375 68.882812 99.585938 68.882812 107.136719 C 68.882812 114.773438 72.058594 122.023438 77.335938 126.441406 C 79.136719 127.945312 80.980469 128.972656 82.824219 129.488281 C 87.585938 130.773438 93.121094 128.585938 96.296875 124.167969 C 99.171875 120.222656 100.15625 114.773438 99.128906 109.195312 C 98.269531 104.648438 96.082031 99.972656 92.476562 94.910156 C 92.179688 94.480469 91.878906 94.050781 91.535156 93.578125 C 88.875 89.761719 85.226562 84.527344 81.28125 83.925781 C 81.023438 83.882812 80.765625 83.882812 80.507812 83.882812 Z M 129.886719 200.789062 C 128.300781 200.789062 126.757812 200.703125 125.167969 200.488281 C 113.542969 198.859375 102.859375 190.148438 98.65625 178.738281 C 94.582031 167.671875 96.382812 154.542969 103.417969 144.546875 L 103.933594 144.933594 L 103.417969 144.546875 C 107.792969 138.324219 113.800781 133.5625 119.636719 128.972656 C 120.921875 127.984375 122.210938 126.957031 123.496094 125.925781 C 126.714844 123.308594 129.589844 120.308594 132.375 117.433594 C 134.050781 115.671875 135.808594 113.871094 137.609375 112.113281 C 148.722656 101.558594 167.554688 96.710938 182.054688 107.867188 C 187.332031 111.941406 191.152344 117.5625 194.839844 123.007812 C 196.472656 125.414062 198.144531 127.902344 199.945312 130.21875 C 202.519531 133.5625 205.4375 136.738281 208.3125 139.785156 C 212.257812 144.03125 216.335938 148.449219 219.550781 153.425781 C 224.484375 161.105469 228.175781 173.332031 222.296875 182.726562 C 215.992188 192.808594 202.476562 193.96875 196.941406 194.011719 C 192.910156 194.054688 188.792969 193.667969 184.84375 193.324219 C 179.566406 192.851562 174.078125 192.339844 168.757812 192.808594 C 162.792969 193.324219 156.875 195.085938 151.125 196.757812 C 144.175781 198.730469 137.097656 200.789062 129.886719 200.789062 Z M 104.535156 145.277344 C 97.753906 154.972656 95.996094 167.628906 99.941406 178.308594 C 103.976562 189.25 114.230469 197.65625 125.382812 199.203125 C 133.921875 200.402344 142.074219 198 150.738281 195.46875 C 156.53125 193.796875 162.535156 192.039062 168.628906 191.480469 C 174.078125 191.007812 179.609375 191.523438 184.972656 191.996094 C 188.921875 192.339844 192.953125 192.722656 196.941406 192.679688 C 202.261719 192.636719 215.21875 191.523438 221.226562 182 C 226.757812 173.160156 223.242188 161.449219 218.480469 154.113281 C 215.347656 149.222656 211.273438 144.890625 207.367188 140.640625 C 204.492188 137.554688 201.535156 134.378906 198.960938 130.988281 C 197.15625 128.628906 195.441406 126.140625 193.8125 123.695312 C 190.207031 118.332031 186.433594 112.800781 181.328125 108.851562 C 167.382812 98.128906 149.28125 102.804688 138.554688 113.015625 C 136.753906 114.730469 135.035156 116.53125 133.363281 118.289062 C 130.574219 121.207031 127.65625 124.210938 124.398438 126.914062 C 123.109375 127.945312 121.824219 128.972656 120.535156 130.003906 C 114.703125 134.507812 108.78125 139.183594 104.535156 145.277344 Z M 185.445312 88.644531 C 179.226562 88.644531 173.820312 83.925781 171.417969 78.734375 C 168.414062 72.34375 168.886719 65.007812 169.570312 59.386719 C 170.515625 51.835938 172.875 41.96875 178.582031 37.550781 C 180.941406 35.75 183.730469 35.019531 186.820312 35.449219 C 191.367188 36.089844 196.042969 39.265625 199.945312 44.457031 C 203.421875 49.046875 205.824219 54.539062 206.382812 59.214844 C 207.28125 66.507812 204.277344 74.617188 198.144531 81.566406 C 194.582031 85.601562 191.066406 87.875 187.417969 88.472656 C 186.777344 88.558594 186.089844 88.644531 185.445312 88.644531 Z M 170.816406 59.515625 C 170.128906 65.007812 169.699219 72.085938 172.53125 78.179688 C 174.976562 83.453125 180.855469 88.257812 187.203125 87.1875 C 190.550781 86.628906 193.8125 84.484375 197.15625 80.710938 C 203.035156 74.058594 205.910156 66.292969 205.050781 59.386719 C 204.066406 51.234375 196.171875 38.066406 186.5625 36.734375 C 183.816406 36.347656 181.371094 36.992188 179.3125 38.578125 C 173.691406 42.914062 171.589844 53.550781 170.816406 59.515625 Z M 125.855469 82.898438 C 122.9375 82.898438 119.976562 82.296875 117.273438 80.75 C 108.179688 75.304688 108.738281 62.433594 109.082031 58.613281 L 109.726562 58.65625 L 109.082031 58.613281 C 109.980469 49.5625 114.445312 38.410156 122.039062 35.320312 C 126.457031 33.515625 131.21875 34.761719 136.195312 39.007812 C 142.585938 44.457031 149.195312 54.023438 149.539062 63.121094 C 149.75 68.140625 148.035156 72.472656 144.519531 75.988281 C 142.328125 78.179688 139.371094 79.851562 135.207031 81.222656 C 132.546875 82.082031 129.246094 82.898438 125.855469 82.898438 Z M 126.027344 35.835938 C 124.824219 35.835938 123.667969 36.046875 122.507812 36.519531 C 115.730469 39.265625 111.269531 49.777344 110.367188 58.742188 C 110.023438 62.347656 109.511719 74.574219 117.960938 79.59375 C 123.324219 82.769531 130.058594 81.566406 134.820312 79.980469 C 138.769531 78.648438 141.558594 77.105469 143.617188 75.046875 C 146.878906 71.785156 148.421875 67.796875 148.25 63.121094 C 147.90625 54.410156 141.515625 45.230469 135.335938 39.953125 C 132.121094 37.25 128.988281 35.835938 126.027344 35.835938 Z M 126.027344 35.835938 " fill-opacity="1" fill-rule="nonzero"/><g fill="#c4cbae" fill-opacity="1"><g transform="translate(65.509916, 237.400167)"><g><path d="M 28.734375 -30.71875 L 28.765625 -30.625 C 26.898438 -27.851562 25.0625 -24.695312 23.25 -21.15625 C 21.332031 -17.125 18.773438 -10.929688 15.578125 -2.578125 C 14.867188 0.128906 13.515625 1.957031 11.515625 2.90625 C 9.515625 3.851562 7.535156 3.671875 5.578125 2.359375 C 4.421875 1.710938 3.582031 0.679688 3.0625 -0.734375 L 2.578125 -2.453125 C 1.109375 -9.523438 0.488281 -14.722656 0.71875 -18.046875 C 0.695312 -22.492188 1.066406 -25.53125 1.828125 -27.15625 C 2.585938 -28.789062 3.53125 -29.085938 4.65625 -28.046875 C 5.789062 -27.003906 6.351562 -24.050781 6.34375 -19.1875 C 6.332031 -14.332031 7.03125 -8.320312 8.4375 -1.15625 C 12.15625 -10.25 15.550781 -17.441406 18.625 -22.734375 C 21.707031 -28.035156 25.078125 -30.695312 28.734375 -30.71875 Z M 28.734375 -30.71875 "/></g></g><g transform="translate(88.76689, 237.400167)"><g><path d="M 5.359375 -19.046875 C 5.617188 -19.171875 5.972656 -19.097656 6.421875 -18.828125 C 6.867188 -18.566406 7.09375 -18.328125 7.09375 -18.109375 L 7.09375 -17.5 C 7.09375 -15.957031 6.390625 -15.1875 4.984375 -15.1875 L 4.59375 -15.1875 C 4.40625 -15.1875 4.210938 -15.378906 4.015625 -15.765625 L 4.015625 -16.921875 C 4.660156 -18.222656 5.109375 -18.929688 5.359375 -19.046875 Z M 3.453125 -14.421875 C 4.859375 -14.117188 5.5625 -13.476562 5.5625 -12.5 L 5.5625 -11.9375 C 3.625 -8.632812 2.65625 -6.378906 2.65625 -5.171875 C 2.945312 -4.773438 3.234375 -4.578125 3.515625 -4.578125 C 3.804688 -4.578125 4.289062 -4.738281 4.96875 -5.0625 C 5.644531 -5.394531 7.101562 -6.617188 9.34375 -8.734375 C 9.601562 -8.691406 9.734375 -8.554688 9.734375 -8.328125 C 9.734375 -7.960938 8.960938 -7.132812 7.421875 -5.84375 C 5.890625 -4.5625 4.566406 -3.878906 3.453125 -3.796875 C 1.984375 -3.796875 1.015625 -4.890625 0.546875 -7.078125 L 0.546875 -7.484375 C 0.546875 -8.359375 1.316406 -10.421875 2.859375 -13.671875 C 2.929688 -14.171875 3.128906 -14.421875 3.453125 -14.421875 Z M 3.453125 -14.421875 "/></g></g><g transform="translate(97.792858, 237.400167)"><g><path d="M 17.609375 -32 C 20.179688 -32.289062 20.050781 -26.113281 17.21875 -13.46875 C 16.175781 -9.144531 15.601562 -6.550781 15.5 -5.6875 C 15.40625 -4.664062 15.664062 -4.113281 16.28125 -4.03125 C 17.375 -4.03125 19.71875 -4.820312 23.3125 -6.40625 L 23.4375 -6.046875 L 23.359375 -5.140625 C 22.960938 -4.222656 21.78125 -3.28125 19.8125 -2.3125 C 18.625 -1.757812 17.410156 -1.484375 16.171875 -1.484375 C 14.222656 -1.660156 13.03125 -2.5625 12.59375 -4.1875 C 12.15625 -5.8125 11.976562 -6.988281 12.0625 -7.71875 L 11.890625 -7.71875 C 8.492188 -2.570312 5.71875 0 3.5625 0 L 3.203125 0.03125 C 2.953125 0.0078125 2.757812 0 2.625 0 C 1.300781 0 0.269531 -1.179688 -0.46875 -3.546875 C -1.207031 -5.910156 0.398438 -9.066406 4.359375 -13.015625 C 8.328125 -16.160156 11.054688 -16.914062 12.546875 -15.28125 C 14.035156 -25.082031 15.722656 -30.65625 17.609375 -32 Z M 2.265625 -3.6875 L 2.8125 -3.296875 C 5.820312 -4.753906 8.019531 -6.441406 9.40625 -8.359375 C 10.800781 -10.285156 11.523438 -11.414062 11.578125 -11.75 L 11.640625 -12.296875 L 11.421875 -12.296875 C 8.304688 -12.179688 6.015625 -10.796875 4.546875 -8.140625 C 3.078125 -5.484375 2.316406 -4 2.265625 -3.6875 Z M 2.265625 -3.6875 "/></g></g><g transform="translate(117.42385, 237.400167)"><g><path d="M 9.859375 -17.453125 C 11.753906 -17.660156 12.625 -16.285156 12.46875 -13.328125 C 11.832031 -10.421875 11.515625 -8.640625 11.515625 -7.984375 C 11.515625 -7.222656 11.742188 -6.820312 12.203125 -6.78125 C 13.023438 -6.78125 14.710938 -7.363281 17.265625 -8.53125 L 17.390625 -8.265625 L 17.390625 -7.578125 C 17.179688 -6.898438 16.234375 -6.21875 14.546875 -5.53125 C 13.984375 -5.082031 13.25 -4.859375 12.34375 -4.859375 C 10.875 -4.992188 9.914062 -5.664062 9.46875 -6.875 C 9.019531 -8.082031 8.796875 -8.960938 8.796875 -9.515625 L 8.65625 -9.515625 C 6.507812 -5.679688 4.640625 -3.765625 3.046875 -3.765625 C 2.660156 -3.765625 2.429688 -3.765625 2.359375 -3.765625 C 1.367188 -3.765625 0.503906 -4.644531 -0.234375 -6.40625 C -0.972656 -8.175781 -0.0234375 -10.535156 2.609375 -13.484375 C 5.640625 -15.671875 7.382812 -16.765625 7.84375 -16.765625 C 9.101562 -17.222656 9.773438 -17.453125 9.859375 -17.453125 Z M 1.8125 -6.515625 L 2.203125 -6.234375 C 4.347656 -7.328125 5.867188 -8.648438 6.765625 -10.203125 C 7.660156 -11.765625 8.109375 -12.675781 8.109375 -12.9375 L 8.109375 -13.328125 L 7.953125 -13.328125 C 5.535156 -12.585938 3.90625 -11.320312 3.0625 -9.53125 C 2.226562 -7.738281 1.8125 -6.734375 1.8125 -6.515625 Z M 1.8125 -6.515625 "/></g></g></g><path stroke-linecap="butt" transform="matrix(0.456283, 0, 0, 0.456283, 63.74546, 193.657631)" fill="none" stroke-linejoin="miter" d="M 62.976231 24.669825 L 63.061841 24.883851 C 58.961114 30.945051 54.928874 37.870914 50.973685 45.644317 C 46.753103 54.470726 41.145637 68.048499 34.134164 86.360514 C 32.601742 92.284738 29.63963 96.282733 25.247828 98.36306 C 20.864588 100.443388 16.524152 100.049581 12.21796 97.173079 C 9.683899 95.743389 7.843281 93.483281 6.704665 90.375632 L 5.643099 86.617345 C 2.424157 71.121904 1.071516 59.72719 1.576616 52.433204 C 1.52525 42.699327 2.329986 36.038856 3.990823 32.460351 C 5.660221 28.890407 7.731987 28.23977 10.214682 30.517 C 12.688816 32.794231 13.921603 39.26636 13.904481 49.916265 C 13.89592 60.56617 15.419781 73.758697 18.501747 89.476725 C 26.643274 69.538116 34.091359 53.768723 40.846001 42.159983 C 47.592083 30.551244 54.97168 24.721192 62.976231 24.669825 Z M 62.745083 50.233022 C 63.292988 49.967631 64.06348 50.121729 65.047997 50.703878 C 66.032514 51.294589 66.520492 51.825372 66.520492 52.304789 L 66.520492 53.631746 C 66.520492 57.021909 64.98807 58.71699 61.906103 58.71699 L 61.050002 58.71699 C 60.621951 58.71699 60.202461 58.28894 59.77441 57.432838 L 59.77441 54.915899 C 61.195539 52.06508 62.188617 50.506975 62.745083 50.233022 Z M 58.533063 60.386389 C 61.606468 61.037026 63.147451 62.449594 63.147451 64.615531 L 63.147451 65.848318 C 58.901186 73.090938 56.778054 78.030645 56.778054 80.675999 C 57.437252 81.532101 58.079329 81.960152 58.704283 81.960152 C 59.329237 81.960152 60.382242 81.600589 61.863298 80.890025 C 63.344354 80.17946 66.537614 77.499862 71.434515 72.859791 C 72.008104 72.945401 72.290617 73.245036 72.290617 73.758697 C 72.290617 74.554872 70.612658 76.361247 67.248178 79.186382 C 63.883698 82.002957 60.981514 83.501135 58.533063 83.672355 C 55.31412 83.672355 53.190988 81.27527 52.163666 76.489662 L 52.163666 75.590755 C 52.163666 73.681648 53.858747 69.169992 57.24891 62.047226 C 57.394447 60.942855 57.822498 60.386389 58.533063 60.386389 Z M 109.334138 21.84469 C 114.975848 21.219736 114.684774 34.763265 108.478036 62.475277 C 106.200806 71.960884 104.942336 77.645399 104.71975 79.520262 C 104.522846 81.771809 105.087873 82.987474 106.423392 83.158694 C 108.820477 83.158694 113.957087 81.420808 121.850345 77.945035 L 122.107175 78.758331 L 121.935955 80.718804 C 121.079853 82.739204 118.485865 84.81097 114.162552 86.916981 C 111.568563 88.141206 108.923209 88.749038 106.209367 88.749038 C 101.937419 88.355231 99.317748 86.377637 98.350353 82.816253 C 97.382958 79.25487 96.997712 76.678004 97.194616 75.077094 L 96.817931 75.077094 C 89.378407 86.360514 83.300085 92.002225 78.574404 92.002225 L 77.761107 92.087835 C 77.221763 92.027908 76.802273 92.002225 76.51976 92.002225 C 73.617575 92.002225 71.348905 89.408237 69.722312 84.22026 C 68.10428 79.040845 71.631419 72.114982 80.320851 63.459794 C 89.010283 56.568175 94.994434 54.915899 98.264743 58.502965 C 101.517929 37.031934 105.199167 24.806802 109.334138 21.84469 Z M 75.706463 83.929186 L 76.905005 84.776726 C 83.51411 81.592028 88.342524 77.885108 91.390246 73.673087 C 94.437968 69.452506 96.013195 66.978372 96.13305 66.233563 L 96.261465 65.043582 L 95.790609 65.043582 C 88.950356 65.300412 83.925039 68.339574 80.706097 74.161065 C 77.487154 79.991118 75.817756 83.244304 75.706463 83.929186 Z M 135.393874 53.760161 C 139.554528 53.306428 141.463635 56.311345 141.121194 62.774912 C 139.725749 69.15287 139.023745 73.056694 139.023745 74.486384 C 139.023745 76.164343 139.520284 77.046128 140.521923 77.131738 C 142.319737 77.131738 146.018096 75.847586 151.625562 73.287841 L 151.882393 73.887113 L 151.882393 75.37673 C 151.428659 76.857786 149.348332 78.355964 145.649972 79.862703 C 144.425747 80.864342 142.816276 81.360881 140.821559 81.360881 C 137.602616 81.044123 135.505167 79.563067 134.52065 76.917713 C 133.536133 74.272358 133.048155 72.34613 133.048155 71.147587 L 132.74852 71.147587 C 128.048521 79.554506 123.947794 83.757965 120.437777 83.757965 C 119.615919 83.757965 119.11938 83.757965 118.94816 83.757965 C 116.782223 83.757965 114.890238 81.814614 113.263645 77.945035 C 111.637052 74.066894 113.717379 68.89604 119.504626 62.432472 C 126.139414 57.646863 129.957628 55.258339 130.950706 55.258339 C 133.715915 54.2567 135.196971 53.760161 135.393874 53.760161 Z M 117.749618 77.731009 L 118.605719 78.33028 C 123.305718 75.933196 126.635953 73.031011 128.604987 69.615165 C 130.56546 66.190758 131.549977 64.204602 131.549977 63.631014 L 131.549977 62.774912 L 131.207537 62.774912 C 125.908267 64.401506 122.338323 67.175275 120.506265 71.104782 C 118.665647 75.034289 117.749618 77.243031 117.749618 77.731009 Z M 117.749618 77.731009 " stroke="#3a3b35" stroke-width="3.281272" stroke-opacity="1" stroke-miterlimit="4"/><g fill="#c4cbae" fill-opacity="1"><g transform="translate(134.679628, 237.400167)"><g/></g></g><g fill="#c4cbae" fill-opacity="1"><g transform="translate(130.519447, 262.016636)"><g><path d="M 17.953125 -32.640625 C 20.566406 -32.929688 20.429688 -26.628906 17.546875 -13.734375 C 16.484375 -9.316406 15.898438 -6.671875 15.796875 -5.796875 C 15.703125 -4.753906 15.96875 -4.191406 16.59375 -4.109375 C 17.707031 -4.109375 20.097656 -4.914062 23.765625 -6.53125 L 23.890625 -6.15625 L 23.8125 -5.25 C 23.414062 -4.300781 22.207031 -3.335938 20.1875 -2.359375 C 18.988281 -1.796875 17.757812 -1.515625 16.5 -1.515625 C 14.507812 -1.691406 13.285156 -2.609375 12.828125 -4.265625 C 12.378906 -5.921875 12.203125 -7.125 12.296875 -7.875 L 12.125 -7.875 C 8.664062 -2.625 5.835938 0 3.640625 0 L 3.265625 0.046875 C 3.003906 0.015625 2.8125 0 2.6875 0 C 1.332031 0 0.28125 -1.203125 -0.46875 -3.609375 C -1.226562 -6.023438 0.410156 -9.25 4.453125 -13.28125 C 8.492188 -16.476562 11.273438 -17.242188 12.796875 -15.578125 C 14.304688 -25.566406 16.023438 -31.253906 17.953125 -32.640625 Z M 2.3125 -3.75 L 2.859375 -3.359375 C 5.929688 -4.835938 8.175781 -6.554688 9.59375 -8.515625 C 11.007812 -10.484375 11.75 -11.640625 11.8125 -11.984375 L 11.859375 -12.546875 L 11.640625 -12.546875 C 8.460938 -12.421875 6.125 -11.003906 4.625 -8.296875 C 3.132812 -5.585938 2.363281 -4.070312 2.3125 -3.75 Z M 2.3125 -3.75 "/></g></g><g transform="translate(150.533533, 262.016636)"><g><path d="M 6.953125 -17.765625 L 9.78125 -17.765625 C 10.78125 -17.222656 11.28125 -16.820312 11.28125 -16.5625 L 11.28125 -15.578125 C 10.863281 -13.210938 8.546875 -11.15625 4.328125 -9.40625 L 4.15625 -9.40625 L 4.15625 -8.609375 C 4.851562 -7.546875 5.664062 -7.015625 6.59375 -7.015625 L 6.78125 -7.015625 C 8.195312 -6.953125 10.175781 -7.835938 12.71875 -9.671875 L 12.875 -9.265625 L 12.875 -8.859375 C 10.488281 -6.441406 8.203125 -5.234375 6.015625 -5.234375 C 2.390625 -5.796875 0.578125 -7.453125 0.578125 -10.203125 C 1.203125 -13.003906 2.273438 -14.992188 3.796875 -16.171875 C 5.242188 -17.234375 6.296875 -17.765625 6.953125 -17.765625 Z M 4.15625 -11.609375 L 4.15625 -11.390625 C 6.238281 -11.972656 7.804688 -13.097656 8.859375 -14.765625 L 9.015625 -15.1875 L 9.015625 -15.359375 L 8.859375 -15.78125 C 5.722656 -14.769531 4.15625 -13.378906 4.15625 -11.609375 Z M 4.15625 -11.609375 "/></g></g></g><path stroke-linecap="butt" transform="matrix(0.465188, 0, 0, 0.465188, 128.720561, 217.420485)" fill="none" stroke-linejoin="miter" d="M 38.581005 21.843973 C 44.223889 21.222584 43.938386 34.767184 37.724496 62.477775 C 35.448869 71.958156 34.197693 77.643026 33.962573 79.523987 C 33.769439 81.774423 34.340445 82.983612 35.675592 83.159952 C 38.068779 83.159952 43.207834 81.421742 51.101154 77.945323 L 51.353068 78.751449 L 51.185125 80.724779 C 50.328616 82.740095 47.733897 84.805793 43.409365 86.913478 C 40.814647 88.139461 38.169545 88.752453 35.457266 88.752453 C 31.191514 88.357787 28.571604 86.37606 27.597535 82.815669 C 26.631862 79.255278 26.245594 76.677353 26.447125 75.081895 L 26.060856 75.081895 C 18.62938 86.359266 12.549844 92.00215 7.822249 92.00215 L 7.007726 92.086121 C 6.461911 92.027341 6.050451 92.00215 5.764948 92.00215 C 2.859534 92.00215 0.600701 89.407431 -1.028345 84.22639 C -2.648995 79.036952 0.886205 72.117702 9.568856 63.460241 C 18.259905 56.566182 24.238675 54.911944 27.513563 58.505924 C 30.76326 37.026017 34.449608 24.808166 38.581005 21.843973 Z M 4.958822 83.924093 L 6.151217 84.780602 C 12.759773 81.589685 17.588133 77.886543 20.636298 73.671174 C 23.684463 69.455806 25.263127 66.978647 25.380687 66.239698 L 25.506644 65.038905 L 25.036404 65.038905 C 18.201125 65.299217 13.171233 68.338985 9.955125 74.166606 C 6.739017 79.98583 5.067985 83.243924 4.958822 83.924093 Z M 57.978418 53.80352 L 64.04116 53.80352 C 66.207624 54.970724 67.290856 55.844028 67.290856 56.406637 L 67.290856 58.505924 C 66.383964 63.602993 61.396058 68.02829 52.335535 71.790213 L 51.949266 71.790213 L 51.949266 73.503231 C 53.460752 75.778859 55.215757 76.920871 57.205881 76.920871 L 57.59215 76.920871 C 60.640315 77.063622 64.897669 75.149072 70.364213 71.194015 L 70.708496 72.09251 L 70.708496 72.949019 C 65.586235 78.155252 60.665506 80.766765 55.9715 80.766765 C 48.162152 79.540781 44.265875 75.98039 44.265875 70.085592 C 45.601021 64.048042 47.910237 59.757099 51.185125 57.22116 C 54.29207 54.945533 56.550903 53.80352 57.978418 53.80352 Z M 51.949266 67.045824 L 51.949266 67.516064 C 56.424946 66.264889 59.8006 63.84651 62.076227 60.252531 L 62.42051 59.362433 L 62.42051 58.976164 L 62.076227 58.077669 C 55.324919 60.244134 51.949266 63.233518 51.949266 67.045824 Z M 51.949266 67.045824 " stroke="#3a3b35" stroke-width="3.281272" stroke-opacity="1" stroke-miterlimit="4"/><g fill="#c4cbae" fill-opacity="1"><g transform="translate(162.980824, 262.016636)"><g/></g></g><g fill="#c4cbae" fill-opacity="1"><g transform="translate(167.178288, 237.245384)"><g><path d="M 9.078125 -12.5625 C 8.910156 -12.507812 8.765625 -12.457031 8.640625 -12.40625 C 8.585938 -8.5625 7.566406 -3.800781 5.578125 1.875 C 5.890625 1.875 6.046875 1.90625 6.046875 1.96875 C 6.972656 1.96875 8.410156 1.597656 10.359375 0.859375 C 11.160156 0.753906 13.0625 -0.128906 16.0625 -1.796875 C 19.0625 -3.472656 20.5625 -5.375 20.5625 -7.5 L 20.5625 -8.609375 C 20.5625 -8.960938 20.132812 -9.472656 19.28125 -10.140625 C 18.40625 -10.679688 17.554688 -11.007812 16.734375 -11.125 C 13.140625 -11.945312 10.585938 -12.425781 9.078125 -12.5625 Z M 9.328125 -14.921875 C 10.609375 -14.910156 11.738281 -14.851562 12.71875 -14.75 C 13.34375 -14.882812 14.125 -15.234375 15.0625 -15.796875 C 15.65625 -16.171875 16.257812 -16.65625 16.875 -17.25 C 20.25 -19.632812 21.9375 -21.96875 21.9375 -24.25 C 21.664062 -25.539062 21.003906 -26.46875 19.953125 -27.03125 C 19.078125 -27.3125 18.328125 -27.515625 17.703125 -27.640625 C 14.285156 -27.109375 12.164062 -26.710938 11.34375 -26.453125 C 11.34375 -24.273438 10.671875 -20.429688 9.328125 -14.921875 Z M 0.5625 0.734375 L 0.5625 0.609375 C 2.957031 -9.085938 4.957031 -16.671875 6.5625 -22.140625 L 7.359375 -25.53125 L 6.859375 -25.53125 C 4.785156 -25.070312 3.519531 -24.84375 3.0625 -24.84375 C 1.5625 -24.65625 0.628906 -24.5625 0.265625 -24.5625 C -1.234375 -24.789062 -2.320312 -25.195312 -3 -25.78125 C -3.6875 -26.363281 -4.082031 -26.878906 -4.1875 -27.328125 C -4.300781 -27.785156 -3.796875 -28.273438 -2.671875 -28.796875 C -1.554688 -29.316406 0.820312 -30.066406 4.46875 -31.046875 C 6.664062 -31.378906 8.703125 -31.546875 10.578125 -31.546875 L 11.75 -31.546875 C 15.0625 -31.546875 17.332031 -31.210938 18.5625 -30.546875 C 20.625 -30.046875 22.6875 -28.484375 24.75 -25.859375 C 25.207031 -24.566406 25.4375 -23.691406 25.4375 -23.234375 C 25.4375 -22.128906 24.84375 -20.640625 23.65625 -18.765625 C 21.457031 -16.785156 19.09375 -15.378906 16.5625 -14.546875 L 15.6875 -14.296875 C 16.082031 -14.203125 16.429688 -14.082031 16.734375 -13.9375 C 19.160156 -13.425781 21.566406 -11.851562 23.953125 -9.21875 C 24.484375 -7.945312 24.75 -7.082031 24.75 -6.625 C 24.613281 -5.070312 23.59375 -3.441406 21.6875 -1.734375 C 19.789062 -0.0351562 15.929688 1.679688 10.109375 3.421875 C 7.867188 4.066406 6.085938 4.453125 4.765625 4.578125 C 1.941406 4.441406 0.539062 3.160156 0.5625 0.734375 Z M 0.5625 0.734375 "/></g></g><g transform="translate(192.459238, 237.245384)"><g><path d="M 5.46875 -19.421875 C 5.726562 -19.546875 6.085938 -19.472656 6.546875 -19.203125 C 7.003906 -18.929688 7.234375 -18.6875 7.234375 -18.46875 L 7.234375 -17.84375 C 7.234375 -16.269531 6.519531 -15.484375 5.09375 -15.484375 L 4.6875 -15.484375 C 4.488281 -15.484375 4.289062 -15.679688 4.09375 -16.078125 L 4.09375 -17.25 C 4.757812 -18.570312 5.21875 -19.296875 5.46875 -19.421875 Z M 3.515625 -14.703125 C 4.953125 -14.398438 5.671875 -13.742188 5.671875 -12.734375 L 5.671875 -12.15625 C 3.691406 -8.789062 2.703125 -6.492188 2.703125 -5.265625 C 3.003906 -4.867188 3.300781 -4.671875 3.59375 -4.671875 C 3.882812 -4.671875 4.375 -4.835938 5.0625 -5.171875 C 5.75 -5.503906 7.234375 -6.75 9.515625 -8.90625 C 9.785156 -8.863281 9.921875 -8.722656 9.921875 -8.484375 C 9.921875 -8.117188 9.140625 -7.28125 7.578125 -5.96875 C 6.015625 -4.65625 4.660156 -3.957031 3.515625 -3.875 C 2.015625 -3.875 1.03125 -4.988281 0.5625 -7.21875 L 0.5625 -7.625 C 0.5625 -8.519531 1.347656 -10.625 2.921875 -13.9375 C 2.984375 -14.445312 3.179688 -14.703125 3.515625 -14.703125 Z M 3.515625 -14.703125 "/></g></g><g transform="translate(201.661345, 237.245384)"><g><path d="M 7.984375 -18.765625 L 11.34375 -18.765625 C 12.550781 -18.140625 13.15625 -17.6875 13.15625 -17.40625 C 12.75 -16.84375 11.335938 -16.359375 8.921875 -15.953125 C 6.515625 -15.554688 5.082031 -13.578125 4.625 -10.015625 L 4.625 -9.34375 C 4.625 -8.726562 4.835938 -8.125 5.265625 -7.53125 C 5.691406 -6.9375 6.445312 -6.640625 7.53125 -6.640625 L 7.765625 -6.640625 C 9.117188 -6.660156 11.722656 -7.757812 15.578125 -9.9375 L 15.78125 -9.484375 L 15.78125 -9.046875 C 12.4375 -6.085938 9.46875 -4.609375 6.875 -4.609375 C 2.53125 -5.253906 0.359375 -7.128906 0.359375 -10.234375 C 1.097656 -13.390625 2.367188 -15.632812 4.171875 -16.96875 C 5.910156 -18.164062 7.179688 -18.765625 7.984375 -18.765625 Z M 7.984375 -18.765625 "/></g></g><g transform="translate(217.124065, 237.245384)"><g><path d="M 6.0625 -30.703125 C 8.445312 -31.421875 9.640625 -31 9.640625 -29.4375 L 9.640625 -29.109375 C 8.972656 -24.867188 7.921875 -19.984375 6.484375 -14.453125 L 6.640625 -14.453125 C 9.421875 -17.742188 11.882812 -19.273438 14.03125 -19.046875 C 16.1875 -18.828125 17.554688 -17.34375 18.140625 -14.59375 C 18.429688 -13.675781 18.625 -12.9375 18.71875 -12.375 C 18.71875 -12.269531 18.671875 -12.21875 18.578125 -12.21875 L 18.71875 -10.453125 C 18.71875 -9.753906 18.523438 -7.445312 18.140625 -3.53125 L 18.28125 -3.53125 C 18.320312 -2.601562 19.238281 -2.5 21.03125 -3.21875 C 22.832031 -3.945312 23.015625 -3.59375 21.578125 -2.15625 C 20.140625 -0.71875 18.800781 0 17.5625 0 C 16.332031 0 15.25 -0.585938 14.3125 -1.765625 C 13.226562 -3.609375 12.6875 -5.378906 12.6875 -7.078125 C 12.6875 -8.023438 12.972656 -10.921875 13.546875 -15.765625 L 13.546875 -16.0625 C 12.078125 -15.550781 10.53125 -14.691406 8.90625 -13.484375 C 7.289062 -12.273438 5.925781 -10.269531 4.8125 -7.46875 C 3.707031 -4.664062 2.851562 -3.019531 2.25 -2.53125 L 1.65625 -2.53125 C -0.257812 -2.269531 -0.851562 -3.941406 -0.125 -7.546875 C 1.414062 -13.585938 2.722656 -18.71875 3.796875 -22.9375 C 4.878906 -27.164062 5.632812 -29.753906 6.0625 -30.703125 Z M 6.0625 -30.703125 "/></g></g><g transform="translate(239.264772, 237.245384)"><g><path d="M 10.84375 -18.53125 C 12.007812 -18.882812 12.625 -18.992188 12.6875 -18.859375 C 12.757812 -18.722656 12.796875 -18.46875 12.796875 -18.09375 C 12.796875 -17.71875 11.859375 -17.265625 9.984375 -16.734375 C 10.816406 -14.890625 11.234375 -13.691406 11.234375 -13.140625 C 11.234375 -12.597656 11.234375 -12.257812 11.234375 -12.125 C 11.234375 -12 10.988281 -11.128906 10.5 -9.515625 C 10.007812 -7.910156 9.253906 -6.757812 8.234375 -6.0625 C 7.210938 -5.363281 6.289062 -4.925781 5.46875 -4.75 C 4.65625 -4.570312 4.132812 -4.484375 3.90625 -4.484375 C 3.6875 -4.484375 3.25 -4.484375 2.59375 -4.484375 C 1.945312 -4.484375 1.378906 -4.835938 0.890625 -5.546875 C 0.398438 -6.265625 0.101562 -7.132812 0 -8.15625 C -0.101562 -9.1875 0.0351562 -10.617188 0.421875 -12.453125 C 0.816406 -14.285156 1.46875 -15.660156 2.375 -16.578125 C 3.289062 -17.492188 3.769531 -17.953125 3.8125 -17.953125 C 3.851562 -17.953125 4.191406 -18.007812 4.828125 -18.125 C 5.472656 -18.238281 6.347656 -18.242188 7.453125 -18.140625 C 8.554688 -18.046875 9.6875 -18.175781 10.84375 -18.53125 Z M 3.828125 -9.703125 C 3.828125 -8.535156 3.828125 -7.800781 3.828125 -7.5 C 3.828125 -7.207031 4.046875 -6.976562 4.484375 -6.8125 C 4.921875 -6.65625 5.429688 -6.765625 6.015625 -7.140625 C 6.597656 -7.523438 7.078125 -8.179688 7.453125 -9.109375 C 7.828125 -10.035156 8.015625 -10.851562 8.015625 -11.5625 C 8.015625 -12.28125 8.015625 -12.664062 8.015625 -12.71875 C 8.015625 -12.78125 7.988281 -13.304688 7.9375 -14.296875 C 7.894531 -15.285156 7.640625 -15.910156 7.171875 -16.171875 L 6.734375 -16.171875 C 5.859375 -16.171875 5.257812 -15.820312 4.9375 -15.125 C 4.625 -14.425781 4.359375 -13.640625 4.140625 -12.765625 C 3.929688 -11.890625 3.828125 -10.867188 3.828125 -9.703125 Z M 3.828125 -9.703125 "/></g></g></g><path stroke-linecap="butt" transform="matrix(0.465188, 0, 0, 0.465188, 165.379401, 192.649232)" fill="none" stroke-linejoin="miter" d="M 19.522307 65.00062 C 19.152832 65.109782 18.842137 65.227343 18.581826 65.336505 C 18.472663 73.5993 16.281007 83.827027 12.006858 96.019687 C 12.661836 96.019687 12.989325 96.086864 12.989325 96.229615 C 14.979449 96.229615 18.0696 95.431886 22.259777 93.836428 C 23.997987 93.609705 28.087398 91.703552 34.544806 88.109573 C 40.993816 84.52399 44.218321 80.451373 44.218321 75.891721 L 44.218321 73.498534 C 44.218321 72.734393 43.294634 71.634367 41.438865 70.206852 C 39.5663 69.039648 37.744119 68.334288 35.972321 68.073976 C 28.255341 66.310575 22.772003 65.286123 19.522307 65.00062 Z M 20.034533 59.911947 C 22.797195 59.945536 25.232368 60.071493 27.340052 60.298216 C 28.683596 60.012713 30.363025 59.25697 32.386738 58.030986 C 33.663105 57.233257 34.964663 56.200408 36.274618 54.915644 C 43.538152 49.784986 47.16572 44.771888 47.16572 39.876351 C 46.569522 37.088497 45.142007 35.089976 42.891571 33.897581 C 41.019007 33.292986 39.406755 32.856334 38.071608 32.570831 C 30.715706 33.712844 26.164451 34.560956 24.392653 35.131962 C 24.392653 39.800776 22.939946 48.063571 20.034533 59.911947 Z M 1.199728 93.584514 L 1.199728 93.324202 C 6.355577 72.474082 10.654918 56.166819 14.097748 44.402414 L 15.810767 37.096894 L 14.735932 37.096894 C 10.29384 38.096155 7.573164 38.591587 6.5823 38.591587 C 3.357795 38.99465 1.350877 39.196182 0.553148 39.196182 C -2.66296 38.709147 -5.005765 37.835844 -6.475266 36.584668 C -7.93637 35.333493 -8.784482 34.216672 -9.011205 33.234206 C -9.246325 32.25174 -8.154696 31.202096 -5.744714 30.093672 C -3.343129 28.985249 1.779131 27.372996 9.613671 25.265312 C 14.341266 24.551554 18.71618 24.198874 22.730017 24.198874 L 25.249162 24.198874 C 32.369944 24.198874 37.257085 24.904235 39.902186 26.33175 C 44.344278 27.414982 48.777973 30.773841 53.194873 36.416725 C 54.185736 39.179387 54.689565 41.060349 54.689565 42.051212 C 54.689565 44.419208 53.404801 47.626919 50.843671 51.665947 C 46.116076 55.914905 41.027404 58.929481 35.586052 60.726471 L 33.713488 61.280683 C 34.5616 61.482214 35.317343 61.734129 35.972321 62.05322 C 41.18695 63.136453 46.359594 66.503709 51.481854 72.171784 C 52.623867 74.909255 53.194873 76.773422 53.194873 77.772683 C 52.90937 81.106351 50.717714 84.599565 46.6367 88.260721 C 42.547288 91.921878 34.250905 95.616624 21.747551 99.344958 C 16.935985 100.747281 13.098488 101.570202 10.251854 101.830514 C 4.189113 101.545011 1.166139 98.790746 1.199728 93.584514 Z M 66.118085 50.238432 C 66.672296 49.969723 67.444834 50.120872 68.4273 50.708672 C 69.409767 51.288076 69.896802 51.825493 69.896802 52.312528 L 69.896802 53.63088 C 69.896802 57.023328 68.360123 58.719552 65.286767 58.719552 L 64.430258 58.719552 C 64.002003 58.719552 63.573749 58.291298 63.145494 57.434789 L 63.145494 54.915644 C 64.573009 52.069011 65.563873 50.507141 66.118085 50.238432 Z M 61.911113 60.382188 C 64.98447 61.037165 66.521148 62.447886 66.521148 64.614351 L 66.521148 65.848732 C 62.280588 73.087074 60.156109 78.032994 60.156109 80.678096 C 60.811087 81.534605 61.44927 81.96286 62.079056 81.96286 C 62.708842 81.96286 63.758486 81.601782 65.236384 80.888025 C 66.722679 80.182664 69.913596 77.503974 74.809133 72.860351 C 75.38014 72.944322 75.665643 73.24662 75.665643 73.758846 C 75.665643 74.556575 73.986213 76.361962 70.627353 79.183404 C 67.260097 82.004846 64.354683 83.499538 61.911113 83.667481 C 58.686608 83.667481 56.570527 81.274294 55.546074 76.487919 L 55.546074 75.597821 C 55.546074 73.683271 57.233901 69.174002 60.626349 62.05322 C 60.769101 60.9364 61.197355 60.382188 61.911113 60.382188 Z M 91.301134 51.665947 L 98.522681 51.665947 C 101.1174 53.009491 102.410561 53.975163 102.410561 54.571361 C 101.528861 55.797345 98.49749 56.838591 93.308052 57.6951 C 88.127011 58.543212 85.053655 62.808964 84.079586 70.467163 L 84.079586 71.91987 C 84.079586 73.229825 84.541429 74.522986 85.448321 75.80775 C 86.36361 77.092514 87.98426 77.730697 90.318667 77.730697 L 90.830893 77.730697 C 93.736307 77.671917 99.337205 75.312318 107.625191 70.635106 L 108.053445 71.617573 L 108.053445 72.558053 C 100.873883 78.914695 94.49205 82.088817 88.907946 82.088817 C 79.570317 80.69489 74.893105 76.664259 74.893105 69.996923 C 76.488563 63.220424 79.226034 58.392063 83.097119 55.511841 C 86.83385 52.950711 89.562924 51.665947 91.301134 51.665947 Z M 120.397254 25.987467 C 125.527912 24.450788 128.089042 25.366078 128.089042 28.724937 L 128.089042 29.405106 C 126.661527 38.52441 124.402694 49.029243 121.295749 60.9364 L 121.640032 60.9364 C 127.618802 53.849206 132.9258 50.540729 137.552629 51.027764 C 142.179457 51.514799 145.118459 54.714112 146.378032 60.642499 C 146.999421 62.607432 147.410881 64.186096 147.612413 65.378491 C 147.612413 65.613611 147.511647 65.722774 147.318512 65.722774 L 147.612413 69.526683 C 147.612413 71.038169 147.200952 75.992487 146.378032 84.398033 L 146.671932 84.398033 C 146.755903 86.388157 148.729233 86.606483 152.591922 85.061408 C 156.446213 83.507935 156.832482 84.272076 153.742331 87.362226 C 150.65218 90.452377 147.780356 91.997453 145.135254 91.997453 C 142.490152 91.997453 140.147347 90.729483 138.132032 88.193544 C 135.789227 84.238487 134.622024 80.434579 134.622024 76.790216 C 134.622024 74.741312 135.25181 68.519025 136.502985 58.123355 L 136.502985 57.476774 C 133.345657 58.560006 130.020386 60.407379 126.527172 63.010495 C 123.042356 65.613611 120.103354 69.929746 117.72696 75.958899 C 115.350567 81.979654 113.503195 85.523251 112.193239 86.572895 L 110.916873 86.572895 C 106.810667 87.118709 105.542698 83.507935 107.112965 75.765764 C 110.413044 62.775375 113.226089 51.749919 115.552099 42.672601 C 117.869712 33.603681 119.490362 28.044768 120.397254 25.987467 Z M 178.287197 52.161379 C 180.797944 51.405636 182.124694 51.170516 182.259048 51.456019 C 182.4018 51.741522 182.477374 52.287336 182.477374 53.10186 C 182.477374 53.907986 180.453661 54.890452 176.406235 56.024068 C 178.203225 59.987522 179.10172 62.557049 179.10172 63.741047 C 179.10172 64.916648 179.10172 65.6472 179.10172 65.915909 C 179.10172 66.184617 178.5727 68.048784 177.523056 71.516807 C 176.465016 74.976432 174.844366 77.461988 172.65271 78.965078 C 170.461054 80.476565 168.487724 81.417045 166.73272 81.78652 C 164.977716 82.155994 163.860895 82.340732 163.382258 82.340732 C 162.895223 82.340732 161.954743 82.340732 160.560816 82.340732 C 159.166889 82.340732 157.940906 81.584988 156.882865 80.056707 C 155.833221 78.536823 155.186641 76.672656 154.959918 74.464206 C 154.733195 72.255756 155.043889 69.174002 155.883604 65.23574 C 156.723319 61.28908 158.125643 58.333283 160.090576 56.368351 C 162.055508 54.403418 163.079961 53.420951 163.163932 53.420951 C 163.247903 53.420951 163.986853 53.294994 165.363985 53.034683 C 166.749514 52.782768 168.622079 52.757577 170.981677 52.967505 C 173.349673 53.185831 175.784846 52.917123 178.287197 52.161379 Z M 163.205918 71.147332 C 163.205918 73.65808 163.205918 75.228347 163.205918 75.874927 C 163.205918 76.51311 163.676158 77.000145 164.616639 77.344428 C 165.557119 77.688711 166.657146 77.453591 167.908321 76.639068 C 169.159496 75.824544 170.183948 74.42222 170.981677 72.432096 C 171.779407 70.441972 172.18247 68.670173 172.18247 67.133495 C 172.18247 65.596817 172.18247 64.765499 172.18247 64.631145 C 172.18247 64.505188 172.132087 63.37997 172.031321 61.255491 C 171.930555 59.13941 171.384741 57.795866 170.38548 57.22486 L 169.444999 57.22486 C 167.564038 57.22486 166.287671 57.980603 165.599105 59.483693 C 164.918936 60.99518 164.34793 62.691404 163.894484 64.572365 C 163.432641 66.453326 163.205918 68.644982 163.205918 71.147332 Z M 163.205918 71.147332 " stroke="#3a3b35" stroke-width="3.281272" stroke-opacity="1" stroke-miterlimit="4"/><g clip-path="url(#9733caebb2)"><g clip-path="url(#376dff7f1b)"><g clip-path="url(#597f5accab)"><path fill="#f1bfa8" d="M 196.382812 246.984375 C 196.230469 246.691406 196.164062 246.363281 196.117188 246.035156 C 196.039062 245.460938 196.183594 244.367188 197.027344 244.507812 C 197.710938 244.625 198.363281 245.695312 198.480469 246.300781 C 198.539062 246.628906 198.492188 246.984375 198.304688 247.261719 C 198.042969 247.636719 197.519531 247.808594 197.089844 247.648438 C 196.777344 247.539062 196.535156 247.28125 196.382812 246.984375 Z M 200.359375 247.296875 C 200.726562 247.566406 201.273438 247.519531 201.636719 247.238281 C 202 246.960938 202.183594 246.492188 202.191406 246.03125 C 202.199219 245.390625 201.804688 244.074219 201.023438 243.992188 C 200.179688 243.902344 199.605469 244.625 199.59375 245.398438 C 199.585938 245.933594 199.738281 246.46875 200.027344 246.921875 C 200.121094 247.058594 200.226562 247.195312 200.359375 247.296875 Z M 204.039062 246.84375 C 203.03125 246.867188 202.976562 248.242188 203.320312 248.886719 C 203.445312 249.121094 203.640625 249.347656 203.90625 249.378906 C 204.003906 249.390625 204.109375 249.371094 204.203125 249.34375 C 204.570312 249.238281 204.902344 248.984375 205.074219 248.640625 C 205.421875 247.953125 204.882812 246.824219 204.039062 246.84375 Z M 202.796875 250.722656 C 202.117188 250.285156 201.371094 249.890625 200.90625 249.234375 C 200.800781 249.085938 200.710938 248.917969 200.582031 248.789062 C 200.191406 248.375 199.496094 248.378906 198.992188 248.566406 C 198.394531 248.789062 197.914062 249.265625 197.554688 249.785156 C 197.101562 250.449219 196.800781 251.199219 196.371094 251.875 C 196.15625 252.210938 195.90625 252.535156 195.78125 252.917969 C 195.609375 253.441406 195.707031 254.039062 196.019531 254.496094 C 196.332031 254.949219 196.847656 255.253906 197.398438 255.320312 C 198.027344 255.394531 198.652344 255.171875 199.234375 254.914062 C 199.8125 254.65625 200.386719 254.355469 201.011719 254.257812 C 201.628906 254.160156 202.261719 254.269531 202.882812 254.203125 C 203.503906 254.136719 204.175781 253.820312 204.355469 253.222656 C 204.429688 252.988281 204.414062 252.738281 204.355469 252.5 C 204.15625 251.71875 203.476562 251.160156 202.796875 250.722656 Z M 202.796875 250.722656 " fill-opacity="1" fill-rule="nonzero"/></g></g></g><g clip-path="url(#176fe5bac9)"><g clip-path="url(#a2256012a6)"><g clip-path="url(#ff8d8ec259)"><path fill="#fff1eb" d="M 199.441406 245.1875 C 199.496094 245.199219 199.550781 245.210938 199.605469 245.222656 C 200.164062 245.363281 200.4375 246.214844 200.785156 246.664062 C 201.0625 247.027344 201.457031 246.867188 201.503906 247.328125 C 201.527344 247.554688 201.539062 247.785156 201.539062 248.007812 C 201.546875 248.625 201.53125 249.238281 201.496094 249.851562 C 201.492188 249.945312 200.652344 250.03125 200.644531 250.125 C 200.582031 251.003906 200.425781 251.128906 199.820312 251.765625 C 199.328125 252.285156 199.191406 252.144531 198.507812 252.351562 C 197.652344 252.613281 197.472656 253.296875 196.605469 253.082031 C 196.457031 253.042969 195.851562 253.753906 195.707031 253.691406 C 195.355469 253.539062 195.023438 253.320312 194.699219 253.109375 C 194.179688 252.765625 193.660156 252.421875 193.140625 252.082031 C 192.789062 251.847656 192.425781 251.601562 192.167969 251.269531 C 191.613281 250.554688 191.625 249.539062 191.910156 248.679688 C 192.523438 246.816406 194.253906 245.671875 196.152344 245.234375 C 196.699219 245.105469 197.257812 246.648438 197.8125 245.03125 C 198.375 245.023438 198.921875 245.074219 199.441406 245.1875 Z M 199.441406 245.1875 " fill-opacity="1" fill-rule="evenodd"/></g></g></g><g clip-path="url(#14f478cd0e)"><g clip-path="url(#f9832488f2)"><g clip-path="url(#aa44f02aa7)"><path fill="#cb836d" d="M 194.839844 251.097656 C 194.398438 250.90625 194.011719 250.566406 193.800781 250.132812 C 193.585938 249.695312 193.5625 249.164062 193.769531 248.730469 C 193.953125 248.34375 194.421875 247.875 194.867188 248.121094 C 195.277344 248.347656 195.660156 248.960938 195.84375 249.367188 C 196.019531 249.765625 196.105469 250.207031 196.039062 250.636719 C 196.019531 250.746094 195.992188 250.859375 195.929688 250.953125 C 195.820312 251.121094 195.621094 251.210938 195.421875 251.226562 C 195.222656 251.238281 195.023438 251.179688 194.839844 251.097656 Z M 196.15625 253.84375 C 197.019531 254.0625 197.929688 253.800781 198.78125 253.539062 C 199.464844 253.332031 200.179688 253.101562 200.667969 252.585938 C 201.273438 251.949219 201.414062 251.007812 201.480469 250.132812 C 201.488281 250.039062 201.492188 249.945312 201.5 249.851562 C 201.277344 249.671875 201.074219 249.46875 200.910156 249.234375 C 200.804688 249.085938 200.714844 248.917969 200.585938 248.785156 C 200.191406 248.375 199.496094 248.378906 198.996094 248.566406 C 198.398438 248.789062 197.917969 249.265625 197.558594 249.785156 C 197.105469 250.445312 196.804688 251.199219 196.375 251.875 C 196.160156 252.210938 195.90625 252.535156 195.785156 252.917969 C 195.703125 253.164062 195.683594 253.433594 195.71875 253.691406 C 195.855469 253.753906 196 253.808594 196.15625 253.84375 Z M 198.476562 246.304688 C 198.410156 245.941406 198.152344 245.421875 197.8125 245.035156 C 197.261719 245.042969 196.703125 245.109375 196.152344 245.238281 C 196.089844 245.515625 196.085938 245.8125 196.117188 246.039062 C 196.160156 246.367188 196.230469 246.695312 196.382812 246.988281 C 196.535156 247.28125 196.777344 247.539062 197.085938 247.652344 C 197.515625 247.808594 198.042969 247.640625 198.300781 247.265625 C 198.488281 246.988281 198.539062 246.632812 198.476562 246.304688 Z M 201.503906 247.328125 C 201.453125 246.867188 201.335938 246.417969 201.058594 246.054688 C 200.707031 245.609375 200.164062 245.367188 199.605469 245.222656 C 199.597656 245.28125 199.597656 245.335938 199.59375 245.394531 C 199.585938 245.929688 199.742188 246.464844 200.027344 246.917969 C 200.121094 247.058594 200.226562 247.191406 200.359375 247.292969 C 200.683594 247.535156 201.152344 247.527344 201.503906 247.328125 Z M 201.503906 247.328125 " fill-opacity="1" fill-rule="nonzero"/></g></g></g><g clip-path="url(#d1390644dc)"><g clip-path="url(#7f655529bb)"><g clip-path="url(#c3498ecb08)"><path fill="#51180f" d="M 203.722656 249.226562 C 203.613281 249.246094 203.503906 249.234375 203.40625 249.203125 C 203.023438 249.078125 202.855469 248.625 202.832031 248.246094 C 202.808594 247.875 202.851562 247.164062 203.15625 246.855469 C 203.269531 246.742188 203.40625 246.691406 203.566406 246.703125 C 203.894531 246.726562 204.269531 246.953125 204.523438 247.277344 C 204.726562 247.535156 204.816406 247.8125 204.773438 248.058594 C 204.710938 248.410156 204.515625 248.746094 204.242188 248.976562 C 204.078125 249.117188 203.898438 249.199219 203.722656 249.226562 Z M 203.453125 246.789062 C 203.363281 246.800781 203.28125 246.84375 203.214844 246.914062 C 202.925781 247.203125 202.886719 247.882812 202.910156 248.242188 C 202.933594 248.59375 203.085938 249.015625 203.429688 249.125 C 203.65625 249.203125 203.941406 249.121094 204.1875 248.910156 C 204.445312 248.695312 204.628906 248.375 204.6875 248.039062 C 204.726562 247.820312 204.644531 247.566406 204.457031 247.324219 C 204.222656 247.019531 203.859375 246.804688 203.558594 246.78125 C 203.523438 246.78125 203.488281 246.78125 203.453125 246.789062 Z M 194.695312 250.984375 C 194.628906 250.992188 194.5625 250.996094 194.496094 250.988281 C 194.367188 250.972656 194.230469 250.925781 194.089844 250.839844 C 193.695312 250.597656 193.414062 250.152344 193.335938 249.652344 C 193.277344 249.257812 193.3125 248.5 193.664062 248.128906 C 193.753906 248.03125 193.859375 247.984375 193.976562 247.984375 C 194.265625 247.984375 194.558594 248.292969 194.773438 248.519531 C 194.796875 248.546875 194.820312 248.570312 194.839844 248.59375 C 195.125 248.886719 195.3125 249.167969 195.414062 249.457031 C 195.539062 249.816406 195.523438 250.195312 195.375 250.488281 C 195.230469 250.753906 194.972656 250.941406 194.695312 250.984375 Z M 193.925781 248.070312 C 193.855469 248.082031 193.785156 248.117188 193.726562 248.183594 C 193.429688 248.496094 193.347656 249.164062 193.417969 249.636719 C 193.492188 250.117188 193.761719 250.542969 194.132812 250.769531 C 194.261719 250.847656 194.386719 250.894531 194.507812 250.90625 C 194.816406 250.941406 195.144531 250.753906 195.300781 250.445312 C 195.445312 250.171875 195.453125 249.820312 195.335938 249.480469 C 195.238281 249.203125 195.058594 248.929688 194.78125 248.648438 C 194.761719 248.621094 194.738281 248.597656 194.710938 248.570312 C 194.507812 248.359375 194.230469 248.066406 193.976562 248.0625 C 193.960938 248.0625 193.945312 248.066406 193.925781 248.070312 Z M 198.136719 254.933594 C 198.039062 254.945312 197.941406 254.957031 197.839844 254.957031 C 197.09375 254.964844 196.339844 254.523438 195.96875 253.847656 C 195.609375 253.191406 195.597656 252.351562 195.941406 251.65625 L 195.976562 251.675781 L 195.941406 251.65625 C 196.15625 251.222656 196.488281 250.867188 196.8125 250.523438 C 196.882812 250.449219 196.953125 250.375 197.023438 250.296875 C 197.199219 250.101562 197.351562 249.886719 197.5 249.679688 C 197.589844 249.554688 197.679688 249.421875 197.777344 249.296875 C 198.375 248.527344 199.507812 248.042969 200.523438 248.605469 C 200.894531 248.8125 201.1875 249.128906 201.472656 249.433594 C 201.597656 249.570312 201.726562 249.710938 201.859375 249.835938 C 202.054688 250.023438 202.265625 250.195312 202.476562 250.359375 C 202.765625 250.585938 203.0625 250.824219 203.3125 251.105469 C 203.695312 251.542969 204.042969 252.273438 203.761719 252.917969 C 203.460938 253.609375 202.625 253.8125 202.28125 253.867188 C 202.027344 253.910156 201.765625 253.925781 201.515625 253.941406 C 201.179688 253.960938 200.828125 253.980469 200.5 254.0625 C 200.128906 254.148438 199.777344 254.316406 199.429688 254.476562 C 199.015625 254.667969 198.589844 254.863281 198.136719 254.933594 Z M 196.019531 251.691406 C 195.6875 252.363281 195.695312 253.175781 196.046875 253.808594 C 196.402344 254.453125 197.125 254.882812 197.839844 254.875 C 198.386719 254.867188 198.875 254.640625 199.394531 254.398438 C 199.742188 254.238281 200.101562 254.070312 200.480469 253.980469 C 200.816406 253.898438 201.167969 253.875 201.507812 253.855469 C 201.761719 253.839844 202.015625 253.824219 202.265625 253.785156 C 202.601562 253.730469 203.402344 253.539062 203.6875 252.882812 C 203.949219 252.277344 203.617188 251.574219 203.25 251.160156 C 203.007812 250.882812 202.710938 250.648438 202.425781 250.421875 C 202.214844 250.253906 202 250.082031 201.804688 249.894531 C 201.671875 249.765625 201.539062 249.625 201.414062 249.488281 C 201.136719 249.183594 200.847656 248.875 200.488281 248.675781 C 199.511719 248.136719 198.421875 248.601562 197.84375 249.34375 C 197.75 249.46875 197.660156 249.597656 197.570312 249.722656 C 197.421875 249.933594 197.269531 250.148438 197.089844 250.351562 C 197.019531 250.425781 196.949219 250.503906 196.878906 250.582031 C 196.554688 250.917969 196.226562 251.269531 196.019531 251.691406 Z M 200.554688 247.367188 C 200.164062 247.425781 199.78125 247.183594 199.582031 246.878906 C 199.332031 246.507812 199.289062 246.042969 199.28125 245.683594 C 199.269531 245.203125 199.320312 244.558594 199.636719 244.230469 C 199.769531 244.09375 199.9375 244.019531 200.132812 244.019531 C 200.425781 244.015625 200.75 244.171875 201.042969 244.457031 C 201.304688 244.714844 201.507812 245.035156 201.585938 245.324219 C 201.714844 245.773438 201.601562 246.308594 201.285156 246.804688 C 201.097656 247.089844 200.898438 247.265625 200.675781 247.339844 C 200.636719 247.351562 200.59375 247.363281 200.554688 247.367188 Z M 199.359375 245.679688 C 199.367188 246.03125 199.410156 246.480469 199.644531 246.835938 C 199.847656 247.140625 200.261719 247.386719 200.652344 247.261719 C 200.855469 247.191406 201.039062 247.027344 201.214844 246.757812 C 201.519531 246.285156 201.625 245.773438 201.503906 245.347656 C 201.367188 244.84375 200.746094 244.09375 200.128906 244.101562 C 199.953125 244.105469 199.808594 244.167969 199.691406 244.285156 C 199.382812 244.613281 199.351562 245.300781 199.359375 245.679688 Z M 196.761719 247.574219 C 196.578125 247.601562 196.386719 247.59375 196.203125 247.523438 C 195.582031 247.265625 195.492188 246.453125 195.480469 246.210938 L 195.519531 246.207031 L 195.480469 246.210938 C 195.449219 245.636719 195.621094 244.894531 196.070312 244.628906 C 196.328125 244.472656 196.640625 244.503906 196.992188 244.722656 C 197.445312 245.003906 197.949219 245.542969 198.058594 246.109375 C 198.121094 246.421875 198.054688 246.710938 197.867188 246.964844 C 197.75 247.121094 197.582031 247.253906 197.332031 247.382812 C 197.175781 247.460938 196.976562 247.542969 196.761719 247.574219 Z M 196.324219 244.621094 C 196.25 244.632812 196.179688 244.65625 196.109375 244.699219 C 195.710938 244.933594 195.53125 245.636719 195.5625 246.207031 C 195.574219 246.4375 195.65625 247.207031 196.234375 247.441406 C 196.601562 247.589844 197.011719 247.453125 197.296875 247.308594 C 197.53125 247.1875 197.691406 247.0625 197.800781 246.914062 C 197.976562 246.679688 198.035156 246.414062 197.976562 246.121094 C 197.875 245.578125 197.386719 245.0625 196.949219 244.792969 C 196.71875 244.652344 196.511719 244.59375 196.324219 244.621094 Z M 196.324219 244.621094 " fill-opacity="1" fill-rule="nonzero"/></g></g></g><g clip-path="url(#15e3d4c926)"><g clip-path="url(#2c2679ffe0)"><g clip-path="url(#535d2fdb52)"><path fill="#f1bfa8" d="M 184.421875 258.113281 C 184.269531 257.816406 184.203125 257.488281 184.15625 257.160156 C 184.078125 256.585938 184.222656 255.492188 185.066406 255.636719 C 185.75 255.75 186.402344 256.820312 186.519531 257.425781 C 186.578125 257.753906 186.53125 258.109375 186.34375 258.386719 C 186.082031 258.761719 185.558594 258.933594 185.128906 258.773438 C 184.816406 258.664062 184.574219 258.40625 184.421875 258.113281 Z M 188.398438 258.421875 C 188.765625 258.695312 189.3125 258.644531 189.675781 258.367188 C 190.039062 258.085938 190.222656 257.617188 190.230469 257.15625 C 190.238281 256.519531 189.84375 255.203125 189.0625 255.121094 C 188.21875 255.03125 187.644531 255.75 187.632812 256.523438 C 187.625 257.058594 187.777344 257.59375 188.066406 258.046875 C 188.160156 258.1875 188.265625 258.320312 188.398438 258.421875 Z M 192.078125 257.96875 C 191.070312 257.992188 191.015625 259.367188 191.359375 260.011719 C 191.484375 260.246094 191.679688 260.472656 191.945312 260.503906 C 192.042969 260.515625 192.148438 260.5 192.242188 260.46875 C 192.609375 260.363281 192.941406 260.109375 193.113281 259.769531 C 193.460938 259.078125 192.921875 257.949219 192.078125 257.96875 Z M 190.835938 261.847656 C 190.15625 261.410156 189.410156 261.019531 188.945312 260.359375 C 188.839844 260.210938 188.75 260.046875 188.621094 259.914062 C 188.230469 259.5 187.535156 259.503906 187.03125 259.691406 C 186.433594 259.914062 185.953125 260.394531 185.59375 260.914062 C 185.140625 261.574219 184.839844 262.324219 184.410156 263 C 184.195312 263.339844 183.945312 263.664062 183.820312 264.042969 C 183.648438 264.566406 183.746094 265.164062 184.058594 265.621094 C 184.371094 266.074219 184.886719 266.378906 185.4375 266.445312 C 186.066406 266.519531 186.691406 266.296875 187.273438 266.039062 C 187.851562 265.78125 188.425781 265.480469 189.050781 265.382812 C 189.667969 265.289062 190.300781 265.394531 190.921875 265.328125 C 191.542969 265.261719 192.214844 264.945312 192.394531 264.347656 C 192.46875 264.113281 192.453125 263.863281 192.394531 263.625 C 192.195312 262.84375 191.515625 262.285156 190.835938 261.847656 Z M 190.835938 261.847656 " fill-opacity="1" fill-rule="nonzero"/></g></g></g><g clip-path="url(#91cd0d7e9b)"><g clip-path="url(#6989ae7b06)"><g clip-path="url(#5664dc3c44)"><path fill="#fff1eb" d="M 187.480469 256.3125 C 187.535156 256.324219 187.589844 256.335938 187.644531 256.351562 C 188.203125 256.488281 188.476562 257.339844 188.824219 257.789062 C 189.101562 258.152344 189.496094 257.992188 189.542969 258.453125 C 189.566406 258.679688 189.578125 258.910156 189.578125 259.136719 C 189.585938 259.75 189.570312 260.363281 189.535156 260.976562 C 189.53125 261.070312 188.691406 261.15625 188.683594 261.253906 C 188.621094 262.128906 188.464844 262.253906 187.859375 262.890625 C 187.367188 263.410156 187.230469 263.269531 186.546875 263.476562 C 185.691406 263.738281 185.511719 264.425781 184.644531 264.207031 C 184.496094 264.167969 183.890625 264.878906 183.746094 264.820312 C 183.394531 264.664062 183.0625 264.445312 182.738281 264.234375 C 182.21875 263.890625 181.699219 263.550781 181.179688 263.207031 C 180.828125 262.972656 180.464844 262.730469 180.207031 262.394531 C 179.652344 261.679688 179.664062 260.664062 179.949219 259.808594 C 180.5625 257.945312 182.292969 256.796875 184.191406 256.359375 C 184.738281 256.234375 185.296875 257.773438 185.851562 256.15625 C 186.414062 256.148438 186.960938 256.199219 187.480469 256.3125 Z M 187.480469 256.3125 " fill-opacity="1" fill-rule="evenodd"/></g></g></g><g clip-path="url(#8248c651f3)"><g clip-path="url(#64c9bb4f53)"><g clip-path="url(#68f56556e7)"><path fill="#cb836d" d="M 182.878906 262.226562 C 182.4375 262.03125 182.050781 261.691406 181.839844 261.257812 C 181.625 260.820312 181.601562 260.289062 181.808594 259.855469 C 181.992188 259.46875 182.460938 259 182.90625 259.246094 C 183.316406 259.472656 183.699219 260.085938 183.882812 260.496094 C 184.058594 260.890625 184.144531 261.332031 184.078125 261.761719 C 184.058594 261.871094 184.03125 261.984375 183.96875 262.078125 C 183.859375 262.246094 183.660156 262.335938 183.460938 262.351562 C 183.261719 262.363281 183.0625 262.304688 182.878906 262.226562 Z M 184.195312 264.972656 C 185.058594 265.1875 185.96875 264.925781 186.820312 264.664062 C 187.503906 264.457031 188.21875 264.226562 188.707031 263.710938 C 189.3125 263.074219 189.453125 262.136719 189.519531 261.257812 C 189.527344 261.164062 189.53125 261.070312 189.539062 260.976562 C 189.316406 260.796875 189.113281 260.59375 188.949219 260.359375 C 188.84375 260.210938 188.753906 260.042969 188.625 259.914062 C 188.230469 259.5 187.535156 259.503906 187.035156 259.691406 C 186.4375 259.914062 185.957031 260.390625 185.597656 260.910156 C 185.144531 261.574219 184.84375 262.324219 184.414062 263 C 184.199219 263.335938 183.945312 263.664062 183.824219 264.042969 C 183.742188 264.289062 183.722656 264.558594 183.757812 264.816406 C 183.894531 264.878906 184.039062 264.933594 184.195312 264.972656 Z M 186.515625 257.429688 C 186.449219 257.070312 186.191406 256.550781 185.851562 256.160156 C 185.300781 256.167969 184.742188 256.234375 184.191406 256.363281 C 184.128906 256.640625 184.125 256.941406 184.15625 257.164062 C 184.199219 257.492188 184.269531 257.820312 184.421875 258.113281 C 184.574219 258.40625 184.816406 258.664062 185.125 258.777344 C 185.554688 258.933594 186.082031 258.765625 186.339844 258.390625 C 186.527344 258.113281 186.578125 257.757812 186.515625 257.429688 Z M 189.542969 258.453125 C 189.492188 257.992188 189.375 257.542969 189.097656 257.179688 C 188.746094 256.734375 188.203125 256.492188 187.644531 256.351562 C 187.636719 256.40625 187.636719 256.460938 187.632812 256.519531 C 187.625 257.054688 187.78125 257.589844 188.066406 258.042969 C 188.160156 258.183594 188.265625 258.316406 188.398438 258.417969 C 188.722656 258.660156 189.191406 258.652344 189.542969 258.453125 Z M 189.542969 258.453125 " fill-opacity="1" fill-rule="nonzero"/></g></g></g><g clip-path="url(#548181882e)"><g clip-path="url(#f549db8eec)"><g clip-path="url(#b97c18ef82)"><path fill="#51180f" d="M 191.761719 260.351562 C 191.652344 260.371094 191.542969 260.363281 191.445312 260.328125 C 191.0625 260.203125 190.894531 259.753906 190.871094 259.371094 C 190.847656 259 190.890625 258.289062 191.195312 257.980469 C 191.308594 257.871094 191.445312 257.820312 191.605469 257.832031 C 191.933594 257.851562 192.308594 258.078125 192.5625 258.402344 C 192.765625 258.660156 192.855469 258.941406 192.8125 259.183594 C 192.75 259.535156 192.554688 259.871094 192.28125 260.101562 C 192.117188 260.242188 191.9375 260.328125 191.761719 260.351562 Z M 191.492188 257.914062 C 191.402344 257.925781 191.320312 257.96875 191.253906 258.039062 C 190.964844 258.328125 190.925781 259.007812 190.949219 259.367188 C 190.972656 259.722656 191.125 260.140625 191.46875 260.25 C 191.695312 260.328125 191.980469 260.25 192.226562 260.039062 C 192.484375 259.820312 192.667969 259.5 192.726562 259.167969 C 192.765625 258.945312 192.683594 258.691406 192.496094 258.449219 C 192.261719 258.148438 191.898438 257.929688 191.597656 257.90625 C 191.5625 257.910156 191.527344 257.90625 191.492188 257.914062 Z M 182.734375 262.109375 C 182.667969 262.117188 182.601562 262.121094 182.535156 262.113281 C 182.40625 262.097656 182.269531 262.050781 182.128906 261.964844 C 181.734375 261.722656 181.453125 261.28125 181.375 260.777344 C 181.316406 260.382812 181.351562 259.625 181.703125 259.253906 C 181.792969 259.15625 181.898438 259.109375 182.015625 259.109375 C 182.304688 259.109375 182.597656 259.417969 182.8125 259.644531 C 182.835938 259.671875 182.859375 259.695312 182.878906 259.71875 C 183.164062 260.011719 183.351562 260.296875 183.453125 260.582031 C 183.578125 260.941406 183.5625 261.320312 183.414062 261.613281 C 183.269531 261.878906 183.011719 262.066406 182.734375 262.109375 Z M 181.964844 259.195312 C 181.894531 259.207031 181.824219 259.242188 181.765625 259.3125 C 181.46875 259.621094 181.386719 260.289062 181.457031 260.765625 C 181.53125 261.242188 181.800781 261.667969 182.171875 261.894531 C 182.300781 261.972656 182.425781 262.019531 182.546875 262.03125 C 182.855469 262.070312 183.183594 261.878906 183.339844 261.570312 C 183.484375 261.296875 183.492188 260.945312 183.375 260.605469 C 183.277344 260.328125 183.097656 260.054688 182.820312 259.773438 C 182.800781 259.75 182.777344 259.722656 182.75 259.699219 C 182.546875 259.484375 182.269531 259.191406 182.015625 259.191406 C 182 259.191406 181.984375 259.191406 181.964844 259.195312 Z M 186.175781 266.058594 C 186.078125 266.074219 185.980469 266.082031 185.878906 266.082031 C 185.132812 266.09375 184.378906 265.648438 184.007812 264.972656 C 183.648438 264.316406 183.636719 263.476562 183.980469 262.78125 L 184.015625 262.800781 L 183.980469 262.78125 C 184.195312 262.351562 184.527344 261.992188 184.851562 261.648438 C 184.921875 261.578125 184.992188 261.5 185.0625 261.421875 C 185.238281 261.226562 185.390625 261.011719 185.539062 260.804688 C 185.628906 260.679688 185.71875 260.550781 185.816406 260.421875 C 186.414062 259.652344 187.546875 259.171875 188.5625 259.730469 C 188.933594 259.9375 189.226562 260.253906 189.511719 260.558594 C 189.636719 260.695312 189.765625 260.835938 189.898438 260.964844 C 190.09375 261.148438 190.304688 261.320312 190.515625 261.484375 C 190.804688 261.710938 191.101562 261.949219 191.351562 262.234375 C 191.734375 262.667969 192.082031 263.398438 191.800781 264.042969 C 191.5 264.738281 190.664062 264.9375 190.320312 264.992188 C 190.066406 265.035156 189.804688 265.050781 189.554688 265.066406 C 189.21875 265.085938 188.867188 265.105469 188.539062 265.1875 C 188.167969 265.277344 187.816406 265.441406 187.46875 265.601562 C 187.054688 265.792969 186.628906 265.988281 186.175781 266.058594 Z M 184.058594 262.816406 C 183.726562 263.488281 183.734375 264.300781 184.085938 264.933594 C 184.441406 265.582031 185.164062 266.011719 185.878906 266 C 186.425781 265.996094 186.914062 265.765625 187.433594 265.523438 C 187.78125 265.363281 188.140625 265.199219 188.519531 265.105469 C 188.855469 265.023438 189.207031 265.003906 189.546875 264.980469 C 189.800781 264.964844 190.054688 264.949219 190.304688 264.910156 C 190.640625 264.855469 191.441406 264.664062 191.726562 264.007812 C 191.988281 263.402344 191.65625 262.699219 191.289062 262.285156 C 191.046875 262.007812 190.75 261.777344 190.464844 261.546875 C 190.253906 261.378906 190.039062 261.210938 189.84375 261.019531 C 189.710938 260.890625 189.578125 260.75 189.453125 260.613281 C 189.175781 260.3125 188.886719 260 188.527344 259.800781 C 187.550781 259.261719 186.460938 259.726562 185.882812 260.46875 C 185.789062 260.59375 185.699219 260.722656 185.609375 260.847656 C 185.460938 261.058594 185.308594 261.273438 185.128906 261.476562 C 185.058594 261.550781 184.988281 261.628906 184.917969 261.707031 C 184.59375 262.042969 184.265625 262.394531 184.058594 262.816406 Z M 188.59375 258.492188 C 188.203125 258.554688 187.820312 258.308594 187.621094 258.007812 C 187.371094 257.632812 187.328125 257.167969 187.320312 256.808594 C 187.308594 256.328125 187.359375 255.6875 187.675781 255.355469 C 187.808594 255.21875 187.976562 255.148438 188.171875 255.144531 C 188.464844 255.140625 188.789062 255.296875 189.082031 255.585938 C 189.34375 255.839844 189.546875 256.160156 189.625 256.449219 C 189.753906 256.898438 189.640625 257.433594 189.324219 257.929688 C 189.136719 258.214844 188.9375 258.390625 188.714844 258.464844 C 188.675781 258.476562 188.632812 258.488281 188.59375 258.492188 Z M 187.398438 256.804688 C 187.40625 257.15625 187.449219 257.605469 187.683594 257.960938 C 187.886719 258.269531 188.300781 258.511719 188.691406 258.386719 C 188.894531 258.320312 189.078125 258.152344 189.253906 257.882812 C 189.558594 257.410156 189.664062 256.898438 189.542969 256.472656 C 189.40625 255.96875 188.785156 255.21875 188.167969 255.226562 C 187.992188 255.230469 187.847656 255.292969 187.730469 255.414062 C 187.421875 255.738281 187.390625 256.425781 187.398438 256.804688 Z M 184.800781 258.699219 C 184.617188 258.730469 184.425781 258.71875 184.242188 258.648438 C 183.621094 258.394531 183.53125 257.582031 183.519531 257.335938 L 183.558594 257.335938 L 183.519531 257.335938 C 183.488281 256.761719 183.660156 256.019531 184.109375 255.753906 C 184.367188 255.597656 184.679688 255.628906 185.03125 255.851562 C 185.484375 256.128906 185.988281 256.667969 186.097656 257.234375 C 186.160156 257.546875 186.09375 257.835938 185.90625 258.089844 C 185.789062 258.25 185.621094 258.382812 185.371094 258.507812 C 185.214844 258.585938 185.015625 258.667969 184.800781 258.699219 Z M 184.363281 255.746094 C 184.289062 255.757812 184.21875 255.785156 184.148438 255.824219 C 183.75 256.0625 183.570312 256.761719 183.601562 257.332031 C 183.613281 257.5625 183.695312 258.335938 184.273438 258.570312 C 184.640625 258.71875 185.050781 258.578125 185.335938 258.433594 C 185.570312 258.3125 185.730469 258.1875 185.839844 258.039062 C 186.015625 257.804688 186.074219 257.539062 186.015625 257.246094 C 185.914062 256.703125 185.425781 256.1875 184.988281 255.917969 C 184.757812 255.777344 184.550781 255.71875 184.363281 255.746094 Z M 184.363281 255.746094 " fill-opacity="1" fill-rule="nonzero"/></g></g></g></svg>