<svg xmlns="http://www.w3.org/2000/svg" xmlns:xlink="http://www.w3.org/1999/xlink" width="433" zoomAndPan="magnify" viewBox="0 0 324.75 63.749997" height="85" preserveAspectRatio="xMidYMid meet" version="1.0"><defs><g/><clipPath id="00886132f8"><path d="M 0.511719 0 L 323.992188 0 L 323.992188 63.5 L 0.511719 63.5 Z M 0.511719 0 " clip-rule="nonzero"/></clipPath><clipPath id="f1610f74de"><path d="M 0.511719 31 L 8 31 L 8 38.433594 L 0.511719 38.433594 Z M 0.511719 31 " clip-rule="nonzero"/></clipPath><clipPath id="ccccb95655"><path d="M 73 25 L 80.445312 25 L 80.445312 32 L 73 32 Z M 73 25 " clip-rule="nonzero"/></clipPath><clipPath id="4cff11c058"><path d="M 258 25.058594 L 266 25.058594 L 266 32 L 258 32 Z M 258 25.058594 " clip-rule="nonzero"/></clipPath><clipPath id="920a2c5c1b"><path d="M 317 25.058594 L 323.988281 25.058594 L 323.988281 32 L 317 32 Z M 317 25.058594 " clip-rule="nonzero"/></clipPath><clipPath id="db63ad5b5e"><path d="M 244.050781 31 L 251 31 L 251 38.503906 L 244.050781 38.503906 Z M 244.050781 31 " clip-rule="nonzero"/></clipPath></defs><g clip-path="url(#00886132f8)"><path fill="#ffffff" d="M 0.511719 0 L 323.992188 0 L 323.992188 63.5 L 0.511719 63.5 Z M 0.511719 0 " fill-opacity="1" fill-rule="nonzero"/><path fill="#d9d9d9" d="M 0.511719 0 L 323.992188 0 L 323.992188 63.5 L 0.511719 63.5 Z M 0.511719 0 " fill-opacity="1" fill-rule="nonzero"/></g><path fill="#000000" d="M 65.292969 36.089844 C 65.296875 36.074219 65.296875 36.0625 65.296875 36.046875 C 65.265625 35.507812 64.714844 35.152344 64.210938 35.050781 C 63.75 34.933594 63.128906 35.0625 62.96875 35.542969 C 62.945312 35.609375 62.945312 35.6875 62.957031 35.757812 C 63.09375 36.375 63.789062 36.722656 64.402344 36.707031 C 64.796875 36.726562 65.253906 36.492188 65.292969 36.089844 Z M 65.53125 33.84375 C 65.5625 33.511719 65.242188 33.21875 64.925781 33.128906 C 64.292969 32.941406 63.457031 33.132812 63.175781 33.757812 C 63.15625 33.816406 63.148438 33.878906 63.148438 33.941406 C 63.175781 34.386719 63.664062 34.628906 64.078125 34.660156 C 64.621094 34.710938 65.28125 34.511719 65.496094 33.984375 C 65.515625 33.9375 65.527344 33.890625 65.53125 33.84375 Z M 63.269531 37.304688 C 63.300781 36.734375 62.753906 36.277344 62.210938 36.15625 C 61.824219 36.035156 61.265625 36.175781 61.183594 36.609375 C 61.121094 37.21875 61.75 37.710938 62.328125 37.796875 C 62.707031 37.878906 63.199219 37.714844 63.269531 37.304688 Z M 63.71875 32.3125 C 63.75 32.070312 63.625 31.816406 63.378906 31.707031 C 62.71875 31.417969 61.804688 31.742188 61.578125 32.421875 C 61.492188 32.707031 61.695312 32.988281 61.96875 33.09375 C 62.546875 33.316406 63.277344 33.082031 63.609375 32.582031 C 63.671875 32.5 63.707031 32.40625 63.71875 32.3125 Z M 62.195312 34.722656 C 62.25 34.246094 62.054688 33.734375 61.71875 33.386719 C 61.324219 33.003906 60.847656 32.671875 60.3125 32.503906 C 59.933594 32.328125 59.445312 32.570312 59.394531 32.976562 C 59.324219 33.460938 59.625 33.921875 59.59375 34.410156 C 59.613281 34.828125 59.347656 35.171875 59.15625 35.523438 C 58.980469 35.824219 58.984375 36.265625 59.316406 36.46875 C 59.660156 36.636719 60.066406 36.492188 60.402344 36.375 C 60.957031 36.121094 61.542969 35.847656 61.925781 35.367188 C 62.082031 35.175781 62.167969 34.953125 62.195312 34.722656 Z M 62.195312 34.722656 " fill-opacity="1" fill-rule="nonzero"/><path fill="#000000" d="M 21.574219 29.671875 C 21.570312 29.65625 21.570312 29.644531 21.566406 29.628906 C 21.414062 29.113281 20.800781 28.882812 20.28125 28.894531 C 19.8125 28.882812 19.234375 29.144531 19.183594 29.648438 C 19.175781 29.722656 19.191406 29.796875 19.21875 29.863281 C 19.488281 30.433594 20.246094 30.621094 20.839844 30.46875 C 21.226562 30.402344 21.621094 30.074219 21.574219 29.671875 Z M 21.304688 27.429688 C 21.257812 27.101562 20.886719 26.882812 20.554688 26.863281 C 19.894531 26.824219 19.121094 27.195312 18.988281 27.863281 C 18.980469 27.925781 18.988281 27.988281 19.003906 28.046875 C 19.128906 28.476562 19.65625 28.609375 20.066406 28.546875 C 20.609375 28.472656 21.207031 28.136719 21.300781 27.574219 C 21.308594 27.523438 21.308594 27.476562 21.304688 27.429688 Z M 19.867188 31.304688 C 19.769531 30.738281 19.136719 30.414062 18.582031 30.414062 C 18.175781 30.382812 17.664062 30.644531 17.679688 31.085938 C 17.753906 31.691406 18.476562 32.035156 19.058594 31.988281 C 19.449219 31.988281 19.890625 31.71875 19.867188 31.304688 Z M 19.195312 26.335938 C 19.171875 26.09375 18.996094 25.871094 18.730469 25.820312 C 18.023438 25.683594 17.203125 26.199219 17.132812 26.914062 C 17.113281 27.210938 17.375 27.441406 17.660156 27.480469 C 18.277344 27.570312 18.9375 27.179688 19.148438 26.621094 C 19.191406 26.527344 19.207031 26.429688 19.195312 26.335938 Z M 18.246094 29.019531 C 18.191406 28.546875 17.890625 28.089844 17.484375 27.824219 C 17.011719 27.535156 16.476562 27.320312 15.917969 27.273438 C 15.507812 27.183594 15.085938 27.527344 15.128906 27.933594 C 15.167969 28.421875 15.5625 28.804688 15.640625 29.289062 C 15.75 29.695312 15.566406 30.085938 15.460938 30.472656 C 15.355469 30.804688 15.457031 31.234375 15.828125 31.355469 C 16.199219 31.445312 16.5625 31.214844 16.867188 31.027344 C 17.351562 30.65625 17.859375 30.261719 18.125 29.710938 C 18.238281 29.488281 18.269531 29.25 18.246094 29.019531 Z M 18.246094 29.019531 " fill-opacity="1" fill-rule="nonzero"/><g clip-path="url(#f1610f74de)"><path fill="#000000" d="M 7.089844 36.367188 C 7.089844 36.355469 7.09375 36.34375 7.09375 36.328125 C 7.078125 35.789062 6.539062 35.414062 6.035156 35.296875 C 5.582031 35.167969 4.957031 35.277344 4.78125 35.753906 C 4.757812 35.824219 4.753906 35.898438 4.761719 35.96875 C 4.882812 36.589844 5.566406 36.957031 6.179688 36.960938 C 6.574219 36.992188 7.035156 36.773438 7.089844 36.367188 Z M 7.394531 34.132812 C 7.433594 33.804688 7.125 33.5 6.808594 33.398438 C 6.179688 33.195312 5.339844 33.359375 5.042969 33.976562 C 5.019531 34.035156 5.011719 34.097656 5.011719 34.160156 C 5.023438 34.605469 5.503906 34.863281 5.914062 34.90625 C 6.457031 34.972656 7.121094 34.792969 7.355469 34.273438 C 7.375 34.226562 7.386719 34.179688 7.394531 34.132812 Z M 5.027344 37.527344 C 5.078125 36.953125 4.546875 36.480469 4.003906 36.34375 C 3.621094 36.210938 3.0625 36.339844 2.964844 36.769531 C 2.886719 37.375 3.496094 37.886719 4.074219 37.988281 C 4.449219 38.082031 4.949219 37.933594 5.027344 37.527344 Z M 5.628906 32.546875 C 5.664062 32.308594 5.550781 32.046875 5.308594 31.933594 C 4.65625 31.625 3.730469 31.917969 3.488281 32.59375 C 3.390625 32.875 3.585938 33.164062 3.855469 33.277344 C 4.425781 33.515625 5.164062 33.304688 5.511719 32.8125 C 5.574219 32.734375 5.613281 32.640625 5.628906 32.546875 Z M 4.03125 34.910156 C 4.101562 34.4375 3.921875 33.921875 3.597656 33.5625 C 3.210938 33.167969 2.75 32.824219 2.21875 32.636719 C 1.84375 32.453125 1.351562 32.679688 1.289062 33.082031 C 1.203125 33.566406 1.488281 34.035156 1.441406 34.519531 C 1.445312 34.941406 1.171875 35.277344 0.972656 35.625 C 0.785156 35.917969 0.777344 36.359375 1.105469 36.570312 C 1.441406 36.746094 1.851562 36.617188 2.191406 36.511719 C 2.753906 36.273438 3.347656 36.015625 3.742188 35.546875 C 3.90625 35.363281 4 35.140625 4.03125 34.910156 Z M 4.03125 34.910156 " fill-opacity="1" fill-rule="nonzero"/></g><path fill="#000000" d="M 50.359375 29.277344 C 50.355469 29.265625 50.355469 29.25 50.351562 29.238281 C 50.167969 28.730469 49.539062 28.539062 49.023438 28.582031 C 48.550781 28.601562 47.992188 28.898438 47.972656 29.402344 C 47.972656 29.476562 47.988281 29.546875 48.023438 29.613281 C 48.328125 30.167969 49.09375 30.304688 49.679688 30.121094 C 50.0625 30.027344 50.433594 29.675781 50.359375 29.277344 Z M 49.953125 27.058594 C 49.886719 26.730469 49.5 26.535156 49.167969 26.539062 C 48.507812 26.539062 47.761719 26.957031 47.667969 27.632812 C 47.664062 27.695312 47.675781 27.757812 47.695312 27.816406 C 47.84375 28.238281 48.382812 28.335938 48.789062 28.246094 C 49.324219 28.144531 49.898438 27.769531 49.960938 27.203125 C 49.964844 27.152344 49.960938 27.101562 49.953125 27.058594 Z M 48.757812 31.011719 C 48.628906 30.453125 47.976562 30.167969 47.417969 30.203125 C 47.011719 30.195312 46.519531 30.488281 46.5625 30.925781 C 46.671875 31.527344 47.414062 31.828125 47.992188 31.746094 C 48.382812 31.71875 48.808594 31.425781 48.757812 31.011719 Z M 47.78125 26.09375 C 47.742188 25.855469 47.550781 25.644531 47.285156 25.609375 C 46.570312 25.515625 45.785156 26.082031 45.757812 26.796875 C 45.757812 27.09375 46.03125 27.308594 46.320312 27.332031 C 46.941406 27.382812 47.574219 26.953125 47.753906 26.382812 C 47.789062 26.289062 47.796875 26.1875 47.78125 26.09375 Z M 47 28.832031 C 46.917969 28.359375 46.585938 27.925781 46.164062 27.683594 C 45.675781 27.425781 45.128906 27.242188 44.566406 27.230469 C 44.15625 27.167969 43.753906 27.535156 43.820312 27.9375 C 43.890625 28.425781 44.304688 28.78125 44.414062 29.257812 C 44.550781 29.65625 44.390625 30.058594 44.308594 30.453125 C 44.222656 30.789062 44.351562 31.210938 44.730469 31.3125 C 45.105469 31.375 45.457031 31.125 45.746094 30.921875 C 46.207031 30.519531 46.6875 30.09375 46.921875 29.527344 C 47.019531 29.300781 47.039062 29.0625 47 28.832031 Z M 47 28.832031 " fill-opacity="1" fill-rule="nonzero"/><path fill="#000000" d="M 35.113281 35.136719 C 35.113281 35.121094 35.117188 35.109375 35.117188 35.09375 C 35.082031 34.554688 34.535156 34.199219 34.027344 34.097656 C 33.570312 33.980469 32.949219 34.109375 32.789062 34.589844 C 32.765625 34.65625 32.761719 34.730469 32.773438 34.804688 C 32.910156 35.417969 33.609375 35.769531 34.222656 35.753906 C 34.613281 35.773438 35.070312 35.539062 35.113281 35.136719 Z M 35.351562 32.890625 C 35.378906 32.5625 35.0625 32.265625 34.742188 32.175781 C 34.109375 31.992188 33.277344 32.179688 32.996094 32.804688 C 32.976562 32.863281 32.96875 32.925781 32.96875 32.988281 C 32.996094 33.433594 33.480469 33.675781 33.894531 33.707031 C 34.441406 33.757812 35.097656 33.558594 35.316406 33.035156 C 35.335938 32.984375 35.347656 32.9375 35.351562 32.890625 Z M 33.085938 36.351562 C 33.117188 35.78125 32.574219 35.320312 32.03125 35.203125 C 31.640625 35.082031 31.085938 35.222656 31.003906 35.65625 C 30.941406 36.265625 31.566406 36.757812 32.148438 36.84375 C 32.527344 36.925781 33.019531 36.761719 33.085938 36.351562 Z M 33.539062 31.359375 C 33.570312 31.117188 33.445312 30.863281 33.199219 30.753906 C 32.539062 30.464844 31.625 30.785156 31.398438 31.46875 C 31.3125 31.753906 31.515625 32.035156 31.785156 32.140625 C 32.367188 32.359375 33.097656 32.128906 33.429688 31.628906 C 33.492188 31.546875 33.527344 31.453125 33.539062 31.359375 Z M 32.015625 33.765625 C 32.070312 33.292969 31.875 32.78125 31.539062 32.433594 C 31.140625 32.050781 30.667969 31.71875 30.132812 31.550781 C 29.753906 31.375 29.265625 31.613281 29.214844 32.019531 C 29.144531 32.507812 29.445312 32.964844 29.414062 33.453125 C 29.429688 33.875 29.164062 34.214844 28.976562 34.570312 C 28.800781 34.867188 28.800781 35.3125 29.136719 35.511719 C 29.480469 35.679688 29.886719 35.539062 30.222656 35.421875 C 30.777344 35.167969 31.359375 34.890625 31.746094 34.414062 C 31.902344 34.222656 31.988281 34 32.015625 33.765625 Z M 32.015625 33.765625 " fill-opacity="1" fill-rule="nonzero"/><g clip-path="url(#ccccb95655)"><path fill="#000000" d="M 80.207031 29.304688 C 80.203125 29.292969 80.203125 29.277344 80.199219 29.265625 C 80.050781 28.746094 79.4375 28.511719 78.921875 28.523438 C 78.449219 28.507812 77.871094 28.769531 77.816406 29.269531 C 77.808594 29.34375 77.824219 29.417969 77.851562 29.484375 C 78.117188 30.054688 78.875 30.246094 79.46875 30.101562 C 79.855469 30.035156 80.253906 29.707031 80.207031 29.304688 Z M 79.949219 27.0625 C 79.90625 26.734375 79.53125 26.511719 79.203125 26.492188 C 78.542969 26.449219 77.769531 26.816406 77.632812 27.484375 C 77.625 27.546875 77.628906 27.609375 77.644531 27.667969 C 77.765625 28.097656 78.296875 28.234375 78.707031 28.171875 C 79.25 28.105469 79.847656 27.769531 79.945312 27.210938 C 79.953125 27.15625 79.957031 27.109375 79.949219 27.0625 Z M 78.492188 30.929688 C 78.398438 30.363281 77.765625 30.035156 77.210938 30.035156 C 76.804688 30 76.292969 30.257812 76.304688 30.699219 C 76.375 31.304688 77.097656 31.652344 77.679688 31.609375 C 78.070312 31.609375 78.511719 31.34375 78.492188 30.929688 Z M 77.847656 25.957031 C 77.824219 25.714844 77.648438 25.492188 77.386719 25.4375 C 76.679688 25.296875 75.855469 25.808594 75.78125 26.523438 C 75.761719 26.820312 76.019531 27.050781 76.308594 27.09375 C 76.921875 27.1875 77.582031 26.800781 77.800781 26.242188 C 77.839844 26.148438 77.855469 26.050781 77.847656 25.957031 Z M 76.882812 28.636719 C 76.832031 28.160156 76.53125 27.703125 76.128906 27.433594 C 75.65625 27.148438 75.125 26.925781 74.566406 26.875 C 74.15625 26.785156 73.730469 27.125 73.769531 27.53125 C 73.808594 28.023438 74.199219 28.40625 74.273438 28.890625 C 74.382812 29.296875 74.199219 29.6875 74.089844 30.074219 C 73.984375 30.402344 74.082031 30.835938 74.449219 30.960938 C 74.824219 31.050781 75.1875 30.824219 75.492188 30.636719 C 75.976562 30.269531 76.488281 29.875 76.757812 29.324219 C 76.871094 29.105469 76.90625 28.867188 76.882812 28.636719 Z M 76.882812 28.636719 " fill-opacity="1" fill-rule="nonzero"/></g><g clip-path="url(#4cff11c058)"><path fill="#000000" d="M 259.203125 27.40625 C 259.203125 27.417969 259.203125 27.433594 259.199219 27.445312 C 259.234375 27.984375 259.78125 28.34375 260.289062 28.445312 C 260.746094 28.558594 261.367188 28.429688 261.527344 27.953125 C 261.550781 27.882812 261.554688 27.808594 261.542969 27.734375 C 261.40625 27.121094 260.707031 26.769531 260.09375 26.789062 C 259.703125 26.765625 259.246094 27 259.203125 27.40625 Z M 258.96875 29.648438 C 258.9375 29.980469 259.253906 30.277344 259.574219 30.367188 C 260.207031 30.550781 261.042969 30.359375 261.320312 29.738281 C 261.34375 29.675781 261.351562 29.613281 261.347656 29.550781 C 261.324219 29.105469 260.835938 28.863281 260.421875 28.832031 C 259.878906 28.785156 259.21875 28.984375 259.003906 29.507812 C 258.984375 29.554688 258.972656 29.601562 258.96875 29.648438 Z M 261.230469 26.1875 C 261.199219 26.761719 261.742188 27.21875 262.285156 27.335938 C 262.675781 27.457031 263.230469 27.316406 263.3125 26.882812 C 263.375 26.273438 262.75 25.78125 262.167969 25.695312 C 261.789062 25.613281 261.296875 25.777344 261.230469 26.1875 Z M 260.78125 31.179688 C 260.75 31.421875 260.871094 31.679688 261.117188 31.785156 C 261.777344 32.078125 262.695312 31.753906 262.917969 31.070312 C 263.003906 30.789062 262.800781 30.503906 262.53125 30.402344 C 261.953125 30.179688 261.222656 30.414062 260.886719 30.914062 C 260.828125 30.992188 260.792969 31.085938 260.78125 31.179688 Z M 262.304688 28.773438 C 262.25 29.246094 262.441406 29.757812 262.78125 30.109375 C 263.175781 30.488281 263.648438 30.820312 264.183594 30.988281 C 264.5625 31.164062 265.050781 30.921875 265.101562 30.519531 C 265.171875 30.03125 264.875 29.574219 264.902344 29.085938 C 264.886719 28.664062 265.152344 28.320312 265.339844 27.96875 C 265.519531 27.667969 265.515625 27.226562 265.179688 27.027344 C 264.835938 26.859375 264.429688 27 264.09375 27.117188 C 263.539062 27.371094 262.957031 27.648438 262.574219 28.125 C 262.414062 28.316406 262.328125 28.539062 262.304688 28.773438 Z M 262.304688 28.773438 " fill-opacity="1" fill-rule="nonzero"/></g><path fill="#000000" d="M 302.925781 33.824219 C 302.925781 33.835938 302.929688 33.847656 302.933594 33.863281 C 303.085938 34.382812 303.699219 34.609375 304.214844 34.597656 C 304.6875 34.609375 305.265625 34.347656 305.316406 33.84375 C 305.320312 33.769531 305.308594 33.699219 305.28125 33.628906 C 305.007812 33.058594 304.25 32.875 303.65625 33.023438 C 303.269531 33.089844 302.875 33.417969 302.925781 33.824219 Z M 303.195312 36.0625 C 303.238281 36.390625 303.613281 36.613281 303.945312 36.628906 C 304.601562 36.667969 305.375 36.300781 305.507812 35.628906 C 305.515625 35.566406 305.511719 35.503906 305.496094 35.445312 C 305.371094 35.015625 304.839844 34.886719 304.429688 34.949219 C 303.890625 35.019531 303.289062 35.359375 303.195312 35.917969 C 303.1875 35.96875 303.1875 36.015625 303.195312 36.0625 Z M 304.628906 32.1875 C 304.726562 32.753906 305.359375 33.082031 305.917969 33.078125 C 306.324219 33.109375 306.832031 32.847656 306.816406 32.410156 C 306.742188 31.800781 306.023438 31.457031 305.4375 31.503906 C 305.050781 31.507812 304.605469 31.773438 304.628906 32.1875 Z M 305.300781 37.15625 C 305.324219 37.398438 305.503906 37.621094 305.765625 37.675781 C 306.476562 37.8125 307.296875 37.292969 307.363281 36.582031 C 307.382812 36.285156 307.125 36.054688 306.835938 36.011719 C 306.222656 35.921875 305.5625 36.3125 305.347656 36.871094 C 305.308594 36.964844 305.292969 37.0625 305.300781 37.15625 Z M 306.253906 34.472656 C 306.304688 34.949219 306.609375 35.402344 307.015625 35.671875 C 307.484375 35.957031 308.019531 36.175781 308.578125 36.222656 C 308.988281 36.308594 309.410156 35.964844 309.371094 35.558594 C 309.332031 35.070312 308.9375 34.6875 308.859375 34.203125 C 308.746094 33.800781 308.929688 33.40625 309.035156 33.019531 C 309.140625 32.691406 309.042969 32.261719 308.671875 32.136719 C 308.296875 32.050781 307.933594 32.277344 307.632812 32.464844 C 307.148438 32.835938 306.640625 33.234375 306.371094 33.785156 C 306.261719 34.003906 306.226562 34.242188 306.253906 34.472656 Z M 306.253906 34.472656 " fill-opacity="1" fill-rule="nonzero"/><g clip-path="url(#920a2c5c1b)"><path fill="#000000" d="M 317.410156 27.125 C 317.40625 27.136719 317.40625 27.152344 317.40625 27.164062 C 317.421875 27.703125 317.957031 28.078125 318.460938 28.195312 C 318.917969 28.324219 319.539062 28.214844 319.714844 27.738281 C 319.742188 27.671875 319.746094 27.597656 319.734375 27.523438 C 319.617188 26.90625 318.929688 26.535156 318.316406 26.53125 C 317.925781 26.5 317.460938 26.722656 317.410156 27.125 Z M 317.105469 29.359375 C 317.066406 29.691406 317.371094 29.996094 317.691406 30.09375 C 318.316406 30.296875 319.15625 30.132812 319.453125 29.515625 C 319.476562 29.460938 319.488281 29.398438 319.488281 29.335938 C 319.476562 28.886719 318.996094 28.628906 318.582031 28.589844 C 318.039062 28.523438 317.375 28.703125 317.144531 29.21875 C 317.125 29.265625 317.109375 29.3125 317.105469 29.359375 Z M 319.46875 25.96875 C 319.421875 26.539062 319.953125 27.011719 320.492188 27.148438 C 320.875 27.28125 321.4375 27.15625 321.53125 26.726562 C 321.613281 26.117188 321 25.605469 320.425781 25.503906 C 320.046875 25.410156 319.550781 25.558594 319.46875 25.96875 Z M 318.871094 30.945312 C 318.832031 31.1875 318.949219 31.445312 319.191406 31.5625 C 319.839844 31.871094 320.765625 31.574219 321.011719 30.898438 C 321.105469 30.617188 320.910156 30.328125 320.644531 30.21875 C 320.070312 29.976562 319.335938 30.191406 318.988281 30.679688 C 318.921875 30.757812 318.886719 30.851562 318.871094 30.945312 Z M 320.464844 28.582031 C 320.398438 29.054688 320.574219 29.570312 320.902344 29.933594 C 321.285156 30.324219 321.75 30.667969 322.28125 30.855469 C 322.652344 31.039062 323.148438 30.816406 323.210938 30.410156 C 323.296875 29.925781 323.011719 29.460938 323.054688 28.972656 C 323.050781 28.550781 323.328125 28.21875 323.527344 27.871094 C 323.710938 27.578125 323.722656 27.136719 323.394531 26.921875 C 323.054688 26.746094 322.644531 26.875 322.304688 26.984375 C 321.742188 27.222656 321.152344 27.476562 320.753906 27.945312 C 320.589844 28.132812 320.5 28.351562 320.464844 28.582031 Z M 320.464844 28.582031 " fill-opacity="1" fill-rule="nonzero"/></g><path fill="#000000" d="M 274.140625 34.214844 C 274.140625 34.230469 274.144531 34.242188 274.148438 34.253906 C 274.332031 34.765625 274.957031 34.953125 275.472656 34.910156 C 275.945312 34.890625 276.503906 34.597656 276.523438 34.089844 C 276.527344 34.015625 276.507812 33.945312 276.476562 33.878906 C 276.171875 33.328125 275.402344 33.1875 274.820312 33.375 C 274.4375 33.464844 274.066406 33.816406 274.140625 34.214844 Z M 274.546875 36.4375 C 274.609375 36.761719 274.996094 36.957031 275.328125 36.953125 C 275.988281 36.953125 276.738281 36.539062 276.828125 35.863281 C 276.832031 35.800781 276.824219 35.738281 276.800781 35.675781 C 276.652344 35.257812 276.117188 35.160156 275.710938 35.246094 C 275.175781 35.351562 274.597656 35.726562 274.539062 36.289062 C 274.535156 36.339844 274.535156 36.390625 274.546875 36.4375 Z M 275.738281 32.480469 C 275.871094 33.039062 276.523438 33.328125 277.078125 33.289062 C 277.484375 33.296875 277.980469 33.003906 277.9375 32.566406 C 277.824219 31.964844 277.082031 31.667969 276.503906 31.746094 C 276.117188 31.773438 275.691406 32.070312 275.738281 32.480469 Z M 276.714844 37.398438 C 276.753906 37.640625 276.945312 37.851562 277.210938 37.886719 C 277.925781 37.980469 278.714844 37.414062 278.738281 36.699219 C 278.742188 36.398438 278.464844 36.183594 278.175781 36.160156 C 277.558594 36.109375 276.921875 36.539062 276.746094 37.113281 C 276.710938 37.207031 276.699219 37.304688 276.714844 37.398438 Z M 277.5 34.660156 C 277.582031 35.132812 277.910156 35.566406 278.332031 35.808594 C 278.820312 36.066406 279.367188 36.25 279.929688 36.265625 C 280.34375 36.324219 280.746094 35.957031 280.679688 35.554688 C 280.609375 35.070312 280.191406 34.710938 280.082031 34.234375 C 279.949219 33.835938 280.105469 33.433594 280.1875 33.042969 C 280.273438 32.707031 280.144531 32.28125 279.769531 32.183594 C 279.390625 32.117188 279.042969 32.367188 278.753906 32.574219 C 278.292969 32.972656 277.808594 33.398438 277.574219 33.964844 C 277.480469 34.195312 277.460938 34.433594 277.5 34.660156 Z M 277.5 34.660156 " fill-opacity="1" fill-rule="nonzero"/><path fill="#000000" d="M 289.382812 28.359375 C 289.382812 28.371094 289.382812 28.382812 289.382812 28.398438 C 289.414062 28.9375 289.960938 29.296875 290.46875 29.398438 C 290.925781 29.511719 291.546875 29.382812 291.710938 28.90625 C 291.730469 28.835938 291.734375 28.761719 291.722656 28.6875 C 291.585938 28.074219 290.886719 27.726562 290.277344 27.742188 C 289.882812 27.71875 289.425781 27.953125 289.382812 28.359375 Z M 289.148438 30.601562 C 289.117188 30.933594 289.433594 31.230469 289.753906 31.320312 C 290.386719 31.503906 291.222656 31.3125 291.5 30.691406 C 291.523438 30.632812 291.53125 30.570312 291.527344 30.507812 C 291.503906 30.058594 291.015625 29.816406 290.601562 29.785156 C 290.058594 29.738281 289.398438 29.933594 289.183594 30.460938 C 289.164062 30.507812 289.152344 30.554688 289.148438 30.601562 Z M 291.410156 27.140625 C 291.378906 27.714844 291.921875 28.171875 292.46875 28.289062 C 292.855469 28.410156 293.410156 28.269531 293.496094 27.835938 C 293.558594 27.226562 292.929688 26.734375 292.351562 26.652344 C 291.972656 26.566406 291.480469 26.730469 291.410156 27.140625 Z M 290.960938 32.132812 C 290.929688 32.375 291.050781 32.632812 291.296875 32.738281 C 291.957031 33.03125 292.875 32.707031 293.097656 32.027344 C 293.183594 31.742188 292.980469 31.457031 292.710938 31.355469 C 292.132812 31.132812 291.402344 31.367188 291.066406 31.867188 C 291.007812 31.945312 290.972656 32.039062 290.960938 32.132812 Z M 292.484375 29.726562 C 292.429688 30.199219 292.625 30.710938 292.960938 31.0625 C 293.355469 31.445312 293.828125 31.773438 294.363281 31.945312 C 294.742188 32.117188 295.230469 31.878906 295.28125 31.472656 C 295.351562 30.988281 295.054688 30.527344 295.085938 30.039062 C 295.066406 29.621094 295.332031 29.277344 295.523438 28.921875 C 295.699219 28.625 295.695312 28.183594 295.363281 27.980469 C 295.019531 27.8125 294.613281 27.953125 294.277344 28.070312 C 293.722656 28.328125 293.136719 28.601562 292.753906 29.078125 C 292.597656 29.269531 292.511719 29.496094 292.484375 29.726562 Z M 292.484375 29.726562 " fill-opacity="1" fill-rule="nonzero"/><g clip-path="url(#db63ad5b5e)"><path fill="#000000" d="M 244.292969 34.1875 C 244.292969 34.203125 244.296875 34.214844 244.296875 34.226562 C 244.449219 34.746094 245.058594 34.980469 245.578125 34.96875 C 246.050781 34.984375 246.628906 34.726562 246.683594 34.222656 C 246.6875 34.148438 246.675781 34.074219 246.648438 34.007812 C 246.378906 33.4375 245.625 33.246094 245.027344 33.394531 C 244.640625 33.457031 244.246094 33.785156 244.292969 34.1875 Z M 244.550781 36.429688 C 244.589844 36.757812 244.964844 36.980469 245.296875 37 C 245.953125 37.042969 246.726562 36.679688 246.867188 36.007812 C 246.875 35.949219 246.867188 35.882812 246.851562 35.824219 C 246.730469 35.394531 246.203125 35.261719 245.792969 35.320312 C 245.25 35.390625 244.648438 35.726562 244.550781 36.285156 C 244.542969 36.335938 244.542969 36.382812 244.550781 36.429688 Z M 246.003906 32.5625 C 246.101562 33.128906 246.730469 33.460938 247.289062 33.460938 C 247.695312 33.492188 248.207031 33.234375 248.191406 32.796875 C 248.121094 32.1875 247.402344 31.839844 246.816406 31.882812 C 246.429688 31.882812 245.984375 32.148438 246.003906 32.5625 Z M 246.652344 37.535156 C 246.671875 37.777344 246.847656 38 247.113281 38.054688 C 247.820312 38.195312 248.644531 37.683594 248.714844 36.96875 C 248.738281 36.675781 248.480469 36.441406 248.191406 36.398438 C 247.578125 36.304688 246.914062 36.691406 246.699219 37.25 C 246.65625 37.34375 246.640625 37.441406 246.652344 37.535156 Z M 247.617188 34.855469 C 247.664062 35.332031 247.964844 35.789062 248.371094 36.058594 C 248.839844 36.347656 249.375 36.566406 249.933594 36.617188 C 250.34375 36.707031 250.765625 36.367188 250.726562 35.960938 C 250.691406 35.46875 250.296875 35.085938 250.222656 34.601562 C 250.113281 34.195312 250.300781 33.804688 250.40625 33.417969 C 250.515625 33.089844 250.417969 32.660156 250.046875 32.535156 C 249.675781 32.445312 249.308594 32.667969 249.007812 32.855469 C 248.519531 33.226562 248.007812 33.617188 247.738281 34.167969 C 247.625 34.390625 247.589844 34.625 247.617188 34.855469 Z M 247.617188 34.855469 " fill-opacity="1" fill-rule="nonzero"/></g><g fill="#000000" fill-opacity="1"><g transform="translate(83.104956, 42.209468)"><g><path d="M 25.046875 -13.578125 C 23.515625 -13.941406 23.832031 -10.835938 21.945312 -9.757812 C 21.3125 -9.398438 20.59375 -9.351562 19.738281 -9.621094 C 19.738281 -13.085938 21.222656 -19.648438 15.511719 -19.648438 C 14.523438 -19.648438 14.253906 -19.335938 14.523438 -20.324219 C 15.152344 -23.023438 15.648438 -27.113281 11.917969 -26.980469 C 7.375 -26.484375 7.195312 -21.179688 6.339844 -12.769531 C 6.296875 -12.277344 6.296875 -13.308594 6.296875 -15.601562 C 6.429688 -19.199219 6.566406 -26.351562 4.945312 -27.472656 C 4.722656 -27.609375 4.542969 -27.699219 4.453125 -27.699219 C 4.363281 -27.652344 4.273438 -27.699219 4.226562 -27.742188 C 4.136719 -27.835938 4.003906 -27.878906 3.777344 -27.878906 C 3.417969 -27.878906 3.417969 -27.878906 3.28125 -27.472656 C 2.921875 -26.621094 2.742188 -25.316406 2.429688 -22.035156 C 2.382812 -21.359375 2.339844 -21 2.339844 -21.179688 C 2.339844 -21.492188 2.429688 -22.84375 2.652344 -25.179688 C 2.742188 -26.574219 2.832031 -27.382812 2.96875 -27.609375 C 3.101562 -27.835938 2.921875 -27.925781 2.742188 -27.742188 C 2.652344 -27.652344 2.5625 -27.609375 2.429688 -27.609375 C 2.113281 -27.652344 1.664062 -27.160156 1.4375 -26.621094 C 0.71875 -24.957031 -0.046875 -19.875 -0.046875 -16.054688 C -0.046875 -11.464844 0.765625 -7.914062 2.429688 -5.394531 C 3.191406 -4.183594 3.730469 -3.730469 4.585938 -3.417969 C 5.125 -3.238281 6.070312 -3.28125 6.476562 -3.460938 L 6.835938 -3.640625 C 7.328125 -3.820312 7.644531 -4.722656 7.824219 -6.386719 C 7.960938 -6.878906 8.050781 -8.363281 8.183594 -9.800781 C 8.542969 -14.570312 8.632812 -16.007812 9.128906 -18.121094 C 9.667969 -20.953125 10.433594 -23.066406 11.691406 -25 C 11.824219 -24.640625 11.824219 -24.058594 11.824219 -23.382812 C 11.824219 -20.683594 10.882812 -18.480469 10.164062 -16.457031 C 9.308594 -14.074219 9.128906 -13.265625 9.351562 -12.90625 C 9.441406 -12.769531 9.53125 -12.726562 9.578125 -12.769531 C 9.667969 -12.769531 9.710938 -12.726562 9.710938 -12.636719 C 9.800781 -12.410156 9.9375 -12.5 10.164062 -12.90625 C 10.296875 -13.128906 10.386719 -13.21875 10.386719 -13.175781 L 10.253906 -12.679688 C 10.253906 -12.457031 10.296875 -12.320312 10.34375 -12.320312 C 10.433594 -12.320312 10.476562 -12.367188 10.476562 -12.457031 C 10.476562 -12.5 10.523438 -12.457031 10.566406 -12.410156 C 10.703125 -12.1875 10.835938 -12.410156 11.0625 -12.996094 C 11.285156 -13.578125 11.734375 -14.433594 11.78125 -14.433594 C 11.734375 -14.390625 11.734375 -14.34375 11.734375 -14.300781 L 11.644531 -14.03125 C 11.421875 -13.445312 11.195312 -12.636719 11.195312 -12.457031 C 11.242188 -12.367188 11.285156 -12.367188 11.421875 -12.5 C 11.554688 -12.636719 11.644531 -12.679688 11.691406 -12.589844 C 11.691406 -12.5 11.78125 -12.546875 12.007812 -12.726562 C 11.960938 -12.726562 14.210938 -17.085938 14.480469 -16.636719 C 14.75 -16.144531 15.109375 -13.355469 15.242188 -11.375 L 15.289062 -10.296875 C 11.511719 -9.128906 8.140625 -5.710938 8.003906 -1.664062 C 7.867188 0.628906 8.050781 2.832031 9.9375 4.003906 C 12.90625 6.117188 16.457031 3.238281 17.535156 0.628906 C 18.257812 -1.035156 19.019531 -4.226562 19.515625 -7.6875 C 23.605469 -5.394531 27.429688 -13.039062 25.046875 -13.578125 Z M 7.328125 -15.289062 C 7.285156 -14.792969 7.195312 -14.480469 7.195312 -14.523438 C 7.195312 -14.75 7.597656 -18.347656 7.960938 -19.964844 L 8.410156 -21.761719 C 8.679688 -22.574219 9.351562 -24.011719 9.441406 -24.011719 C 9.398438 -23.96875 9.398438 -23.878906 9.351562 -23.785156 C 9.308594 -23.605469 9.21875 -23.425781 9.128906 -23.246094 C 8.363281 -21.3125 7.644531 -18.167969 7.328125 -15.289062 Z M 9.847656 -23.066406 C 9.261719 -21.582031 8.679688 -19.605469 8.273438 -17.132812 C 7.960938 -15.511719 7.914062 -15.78125 8.230469 -17.535156 C 8.542969 -19.109375 8.949219 -21.132812 9.171875 -21.808594 C 9.398438 -22.394531 10.117188 -23.878906 10.117188 -23.832031 C 10.164062 -23.832031 10.027344 -23.472656 9.847656 -23.066406 Z M 10.882812 -16.726562 C 10.207031 -14.613281 9.847656 -13.804688 9.847656 -14.03125 C 9.890625 -14.253906 9.984375 -14.480469 10.074219 -14.75 C 10.207031 -15.242188 10.433594 -15.738281 10.65625 -16.414062 C 11.375 -18.527344 12.097656 -21.222656 12.230469 -22.167969 C 12.230469 -22.304688 12.277344 -22.394531 12.277344 -22.4375 C 12.277344 -22.484375 12.277344 -22.484375 12.320312 -22.527344 C 12.367188 -22.484375 12.320312 -22.257812 12.277344 -21.855469 C 12.140625 -20.820312 11.691406 -19.109375 10.882812 -16.726562 Z M 12.816406 -21.808594 C 12.589844 -20.234375 12.007812 -17.941406 11.554688 -17.222656 C 11.375 -16.953125 11.285156 -16.863281 11.285156 -16.90625 C 11.644531 -18.078125 12.859375 -22.347656 12.859375 -22.84375 C 12.859375 -22.976562 12.859375 -22.976562 12.90625 -22.84375 C 12.90625 -22.707031 12.949219 -22.304688 12.816406 -21.808594 Z M 11.871094 2.652344 C 9.710938 2.652344 10.65625 -1.976562 10.882812 -3.011719 C 11.242188 -4.453125 13.488281 -8.003906 15.109375 -8.140625 C 14.75 -5.125 13.804688 2.652344 11.871094 2.652344 Z M 14.839844 -2.609375 C 15.109375 -3.730469 15.289062 -4.675781 15.421875 -5.441406 C 15.738281 -6.835938 15.738281 -6.699219 15.511719 -5.214844 C 15.152344 -2.878906 14.75 -0.855469 14.253906 0.0898438 C 14.121094 0.40625 14.03125 0.539062 14.074219 0.40625 Z M 14.433594 1.035156 C 14.570312 0.855469 14.882812 -0.359375 15.242188 -1.753906 C 15.78125 -3.730469 16.234375 -6.160156 16.546875 -8.273438 L 16.546875 -8.320312 L 16.683594 -8.320312 L 16.59375 -7.644531 C 16.367188 -4.453125 15.601562 -0.945312 15.019531 0.269531 C 14.703125 0.808594 14.300781 1.394531 14.433594 1.035156 Z M 16.636719 -0.269531 C 16.414062 0.316406 15.78125 1.304688 15.78125 1.214844 C 15.738281 1.214844 15.828125 0.988281 16.546875 -1.347656 C 17.222656 -3.328125 17.625 -5.441406 17.988281 -8.140625 C 18.03125 -8.140625 18.121094 -8.09375 18.167969 -8.09375 C 17.941406 -5.304688 17.132812 -1.707031 16.636719 -0.269531 Z M 16.636719 -0.269531 "/></g></g></g><g fill="#000000" fill-opacity="1"><g transform="translate(107.07096, 42.209468)"><g><path d="M 14.523438 -13.445312 C 13.984375 -13.625 13.445312 -13.355469 13.265625 -12.859375 C 13.21875 -12.816406 12.367188 -10.164062 10.882812 -7.554688 C 10.433594 -6.746094 7.554688 -2.070312 6.117188 -2.789062 C 5.890625 -2.921875 5.441406 -3.777344 5.261719 -4.453125 C 4.765625 -5.890625 5.035156 -9.308594 5.035156 -11.734375 C 5.035156 -12.636719 5.933594 -12.90625 8.09375 -15.421875 C 9.488281 -17.085938 10.34375 -18.796875 10.34375 -20.011719 C 10.34375 -20.910156 9.757812 -21.671875 8.722656 -21.988281 C 6.25 -22.664062 4.316406 -21.359375 2.832031 -19.605469 C -1.527344 -14.523438 -2.339844 -1.394531 6.519531 -0.855469 C 8.632812 -1.035156 10.613281 -3.058594 12.636719 -6.65625 C 14.121094 -9.441406 15.109375 -12.050781 15.109375 -12.230469 C 15.289062 -12.769531 15.019531 -13.308594 14.523438 -13.445312 Z M 5.035156 -15.78125 C 5.621094 -17.535156 6.476562 -19.199219 7.375 -20.144531 C 7.777344 -20.550781 7.777344 -20.550781 7.914062 -20.414062 C 9.082031 -19.109375 5.261719 -15.152344 4.722656 -14.613281 C 4.722656 -14.660156 4.855469 -15.109375 5.035156 -15.78125 Z M 3.011719 -14.972656 C 3.28125 -15.738281 3.597656 -16.414062 4.003906 -17.085938 C 4.363281 -17.761719 4.453125 -17.804688 4.226562 -17.265625 C 4.003906 -16.683594 3.460938 -14.882812 3.101562 -13.804688 C 2.832031 -12.90625 2.652344 -12.5 2.519531 -12.636719 C 2.519531 -12.726562 2.789062 -14.390625 3.011719 -14.972656 Z M 0.808594 -12.410156 C 0.988281 -13.757812 1.527344 -15.242188 2.472656 -16.863281 C 2.832031 -17.445312 2.921875 -17.535156 2.699219 -17.085938 C 2.113281 -15.78125 1.394531 -13.625 1.035156 -12.050781 C 0.898438 -11.554688 0.898438 -10.476562 0.855469 -10.433594 C 0.71875 -10.296875 0.675781 -11.285156 0.808594 -12.410156 Z M 0.808594 -12.410156 "/></g></g></g><g fill="#000000" fill-opacity="1"><g transform="translate(120.335447, 42.209468)"><g><path d="M 26.664062 -13.488281 C 26.125 -13.625 25.628906 -13.175781 25.585938 -12.636719 C 25.539062 -12.636719 25.046875 -8.410156 24.011719 -4.453125 C 23.425781 -2.113281 22.753906 -0.269531 22.078125 0.988281 C 21.492188 2.023438 21 2.609375 20.503906 2.789062 C 20.28125 1.753906 20.234375 0.855469 20.28125 -0.179688 C 20.28125 -1.753906 21.222656 -6.160156 21.808594 -9.9375 C 22.527344 -14.34375 23.878906 -20.011719 22.664062 -24.238281 C 22.125 -26.171875 20.910156 -27.292969 19.246094 -26.980469 C 15.558594 -26.394531 13.941406 -20.054688 13.21875 -15.289062 C 12.996094 -13.714844 12.859375 -13.398438 12.859375 -14.074219 C 12.859375 -15.558594 12.546875 -17.085938 12.1875 -17.761719 C 11.691406 -18.617188 10.523438 -18.976562 9.441406 -18.570312 C 8.050781 -18.078125 6.65625 -15.828125 5.933594 -12.949219 C 5.800781 -12.457031 5.710938 -12.140625 5.710938 -12.1875 L 5.441406 -13.625 C 4.722656 -18.347656 4.675781 -18.707031 4.316406 -19.425781 C 4.136719 -19.738281 3.730469 -20.101562 3.417969 -20.234375 C 3.28125 -20.371094 3.191406 -19.964844 3.058594 -20.28125 C 3.011719 -20.371094 2.878906 -20.414062 2.609375 -20.414062 C 2.070312 -20.414062 1.886719 -19.648438 1.84375 -19.335938 L 1.707031 -18.929688 L 1.753906 -19.335938 C 1.796875 -19.648438 1.976562 -20.414062 1.664062 -20.414062 C 1.484375 -20.28125 1.4375 -20.054688 1.257812 -20.191406 C 1.035156 -20.234375 0.765625 -20.101562 0.539062 -19.695312 C 0.0898438 -19.019531 -0.179688 -16.097656 0.046875 -13.625 C 0.359375 -9.667969 1.167969 -5.933594 2.203125 -3.820312 C 2.699219 -2.921875 3.058594 -2.429688 3.640625 -1.933594 C 4.003906 -1.707031 5.035156 -0.898438 5.171875 -1.394531 L 5.214844 -1.664062 C 5.351562 -1.304688 5.394531 -1.257812 5.441406 -1.257812 C 5.484375 -1.304688 5.574219 -1.347656 5.621094 -1.347656 C 5.933594 -1.347656 5.890625 -1.796875 6.117188 -1.933594 C 7.238281 -3.058594 7.058594 -5.082031 7.058594 -6.476562 C 7.195312 -10.027344 7.464844 -11.734375 8.050781 -13.757812 C 8.410156 -14.792969 8.992188 -16.054688 9.578125 -16.816406 C 9.53125 -15.601562 9.398438 -14.433594 9.261719 -13.398438 C 8.679688 -8.949219 8.949219 -8.320312 9.308594 -6.519531 C 9.441406 -5.890625 9.621094 -5.484375 9.9375 -5.261719 C 10.476562 -4.902344 11.375 -4.675781 11.511719 -4.902344 C 11.644531 -5.035156 12.007812 -4.765625 12.140625 -4.902344 C 13.398438 -5.484375 13.488281 -7.6875 13.847656 -8.8125 C 14.210938 -9.9375 16.144531 -19.785156 16.863281 -21.042969 C 17.402344 -22.617188 18.121094 -23.96875 18.660156 -24.640625 L 18.839844 -24.867188 L 18.796875 -24.28125 C 18.796875 -23.605469 17.625 -18.078125 17.402344 -17.132812 C 15.964844 -10.925781 14.703125 -5.664062 15.78125 0.0898438 C 16.1875 2.382812 17.355469 4.09375 19.109375 4.632812 C 20.773438 5.125 22.574219 4.585938 23.832031 1.886719 C 24.507812 0.449219 25.226562 -1.4375 25.902344 -3.957031 C 26.980469 -8.050781 27.519531 -12.230469 27.519531 -12.410156 C 27.5625 -12.949219 27.203125 -13.445312 26.664062 -13.488281 Z M 12.949219 -10.566406 C 12.949219 -10.703125 13.039062 -11.375 13.21875 -12.050781 C 13.578125 -13.445312 13.714844 -14.480469 14.074219 -16.503906 C 14.433594 -18.480469 14.882812 -19.558594 15.289062 -20.820312 C 15.648438 -21.671875 16.367188 -23.5625 16.546875 -23.5625 L 16.457031 -23.382812 C 16.414062 -23.246094 16.414062 -23.066406 16.277344 -22.933594 C 15.421875 -21 14.523438 -18.347656 13.847656 -14.433594 C 13.488281 -12.679688 12.949219 -10.207031 12.949219 -10.566406 Z M 16.953125 -22.886719 C 16.773438 -22.527344 16.277344 -21.089844 15.964844 -20.011719 C 15.511719 -18.617188 15.109375 -17.492188 14.613281 -14.703125 C 14.03125 -11.691406 13.039062 -7.644531 13.039062 -8.230469 C 13.039062 -8.363281 13.21875 -9.398438 13.535156 -10.476562 C 14.03125 -12.367188 14.164062 -13.488281 14.882812 -16.863281 C 15.242188 -18.839844 15.738281 -20.101562 16.054688 -21 C 16.367188 -21.761719 16.996094 -23.203125 16.996094 -23.066406 C 17.042969 -23.066406 16.996094 -23.023438 16.953125 -22.886719 Z M 16.683594 -8.542969 C 16.816406 -9.847656 17.222656 -12.410156 18.527344 -18.527344 C 18.707031 -19.558594 18.929688 -19.964844 18.976562 -20.371094 C 19.109375 -21.222656 19.246094 -21.3125 19.109375 -20.59375 C 18.976562 -19.335938 18.617188 -17.988281 17.941406 -14.613281 C 17.535156 -12.589844 17.042969 -10.296875 16.90625 -9.441406 C 16.726562 -8.5 16.636719 -8.183594 16.683594 -8.542969 Z M 17.355469 -5.171875 L 17.402344 -6.070312 C 17.535156 -8.589844 17.761719 -10.703125 18.976562 -16.726562 C 19.46875 -19.109375 19.785156 -20.550781 19.921875 -21.402344 C 19.964844 -21.945312 19.964844 -21.988281 20.011719 -21.671875 C 20.011719 -21.492188 19.964844 -20.59375 19.828125 -19.738281 C 19.605469 -17.582031 19.46875 -17.132812 18.617188 -12.679688 C 17.898438 -9.128906 17.671875 -7.824219 17.445312 -6.027344 Z M 18.839844 -2.429688 L 18.886719 -3.238281 C 19.019531 -5.171875 19.605469 -9.308594 20.640625 -15.289062 L 21.3125 -19.066406 C 21.359375 -19.378906 21.359375 -19.558594 21.402344 -19.605469 C 21.359375 -19.558594 21.359375 -19.46875 21.359375 -19.246094 C 21.132812 -17.265625 20.910156 -15.46875 20.414062 -12.230469 C 19.558594 -7.238281 19.246094 -5.171875 19.019531 -3.730469 Z M 18.839844 -2.429688 "/></g></g></g><g fill="#000000" fill-opacity="1"><g transform="translate(145.920164, 42.209468)"><g><path d="M 2.742188 -13.625 C 2.609375 -12.859375 3.460938 -12.320312 4.046875 -12.140625 C 5.261719 -11.644531 9.351562 -12.050781 11.0625 -12.050781 C 12.636719 -12.050781 14.164062 -11.960938 14.164062 -12.636719 C 14.164062 -14.210938 10.476562 -14.433594 9.578125 -14.570312 C 8.320312 -14.703125 2.878906 -15.332031 2.742188 -13.625 Z M 2.742188 -13.625 "/></g></g></g><g fill="#000000" fill-opacity="1"><g transform="translate(163.231433, 42.209468)"><g><path d="M 17.625 -13.535156 C 16.726562 -13.757812 16.277344 -12.90625 16.277344 -12.769531 C 15.917969 -11.601562 15.019531 -8.320312 13.714844 -8.320312 L 13.667969 -8.320312 C 12.90625 -8.453125 12.1875 -8.949219 11.601562 -9.488281 C 12.636719 -13.757812 13.578125 -17.671875 13.578125 -21.582031 C 13.578125 -23.382812 13.535156 -23.832031 13.039062 -24.6875 C 11.960938 -26.753906 9.171875 -25.902344 7.960938 -24.6875 C 7.058594 -23.785156 6.566406 -22.753906 6.207031 -21 C 5.484375 -17.222656 6.339844 -12.546875 8.632812 -9.53125 L 8.992188 -9.039062 L 8.5 -7.867188 C 7.644531 -5.84375 6.699219 -3.820312 6.429688 -3.820312 C 6.25 -3.820312 5.84375 -5.484375 5.574219 -6.476562 C 5.261719 -7.867188 5.035156 -9.578125 4.8125 -12.457031 C 4.453125 -16.503906 4.722656 -20.683594 3.910156 -24.507812 C 3.730469 -25.539062 3.460938 -26.082031 3.058594 -26.394531 C 2.699219 -26.664062 2.519531 -26.710938 2.519531 -26.574219 C 2.519531 -26.351562 2.160156 -26.800781 1.933594 -26.800781 L 1.617188 -26.84375 L 1.394531 -26.394531 C 1.257812 -26.082031 1.214844 -25.8125 1.167969 -25.675781 C 1.125 -25.449219 1.078125 -25.539062 1.125 -26.082031 C 1.125 -26.621094 1.125 -26.753906 0.988281 -26.753906 C 0.855469 -26.710938 0.496094 -25.855469 0.496094 -25.539062 C 0.496094 -25.40625 0.449219 -25.40625 0.449219 -25.449219 C 0.316406 -25.628906 0.539062 -26.394531 0.675781 -26.53125 C 0.675781 -26.664062 0.40625 -26.574219 0.179688 -26.351562 C -0.40625 -25.765625 -0.539062 -24.6875 -0.539062 -21 C -0.539062 -18.167969 -0.539062 -16.953125 -0.179688 -13.847656 C 0.179688 -10.074219 1.035156 -1.125 6.117188 -1.125 C 9.308594 -1.257812 10.433594 -4.945312 11.0625 -7.375 C 11.824219 -6.789062 12.636719 -6.476562 13.445312 -6.386719 C 13.488281 -6.339844 13.625 -6.339844 13.757812 -6.339844 C 14.972656 -6.339844 16.054688 -7.238281 16.996094 -9.039062 C 17.671875 -10.253906 17.898438 -10.972656 18.210938 -12.367188 C 18.347656 -12.859375 18.300781 -13.398438 17.625 -13.535156 Z M 12.679688 -18.121094 C 12.679688 -17.988281 12.636719 -17.355469 12.5 -16.59375 C 12.007812 -13.984375 11.195312 -10.296875 11.105469 -10.523438 C 11.0625 -10.566406 11.0625 -10.703125 11.105469 -10.882812 C 11.464844 -11.960938 12.320312 -16.007812 12.546875 -17.535156 C 12.589844 -17.941406 12.636719 -18.167969 12.679688 -18.121094 Z M 12.277344 -19.695312 C 12.277344 -19.558594 12.230469 -19.46875 12.230469 -19.335938 C 12.050781 -17.492188 11.601562 -15.109375 11.105469 -12.996094 C 10.746094 -11.554688 10.746094 -11.464844 10.613281 -11.601562 C 10.566406 -11.644531 10.65625 -12.050781 10.792969 -12.546875 C 11.332031 -14.570312 11.871094 -17.222656 12.097656 -19.019531 C 12.230469 -19.515625 12.230469 -19.828125 12.277344 -19.828125 Z M 9.261719 -21.042969 C 9.398438 -23.246094 9.667969 -24.191406 10.34375 -24.730469 C 11.152344 -25.316406 11.511719 -23.96875 11.644531 -23.472656 C 12.007812 -21.945312 11.511719 -17.804688 10.566406 -13.984375 C 10.433594 -13.625 10.34375 -13.355469 10.296875 -13.128906 C 10.253906 -12.996094 10.207031 -12.90625 10.207031 -12.769531 C 10.164062 -12.769531 10.027344 -13.128906 9.890625 -13.625 C 9.351562 -15.875 9.128906 -18.347656 9.261719 -21.042969 Z M 9.261719 -21.042969 "/></g></g></g><g fill="#000000" fill-opacity="1"><g transform="translate(179.508527, 42.209468)"><g><path d="M 3.058594 -25.316406 C 3.011719 -25.269531 2.921875 -25.226562 2.878906 -25.269531 C 2.519531 -25.40625 2.160156 -24.820312 1.976562 -24.058594 C 1.84375 -23.203125 2.160156 -22.574219 3.011719 -22.125 C 3.328125 -21.988281 3.328125 -22.125 3.460938 -21.988281 C 3.6875 -21.855469 3.777344 -21.898438 3.777344 -22.125 C 3.777344 -22.257812 3.820312 -22.257812 3.910156 -22.125 C 4.046875 -21.898438 4.226562 -21.898438 4.273438 -22.078125 C 4.316406 -22.214844 4.496094 -21.945312 4.8125 -22.167969 C 4.945312 -22.304688 5.035156 -22.394531 4.992188 -22.527344 C 4.992188 -22.617188 5.082031 -22.796875 5.261719 -23.023438 C 5.484375 -23.246094 5.574219 -23.425781 5.574219 -23.605469 C 5.53125 -23.96875 5.082031 -24.550781 4.765625 -24.550781 C 4.675781 -24.507812 4.585938 -24.550781 4.542969 -24.730469 C 4.226562 -24.910156 4.363281 -25.359375 4.046875 -25.046875 C 3.957031 -24.957031 3.910156 -24.957031 3.910156 -25.089844 C 3.910156 -25.40625 3.6875 -25.40625 3.371094 -25.089844 C 3.058594 -24.777344 2.96875 -24.777344 3.148438 -25.089844 C 3.28125 -25.269531 3.28125 -25.359375 3.191406 -25.359375 C 3.148438 -25.359375 3.101562 -25.359375 3.058594 -25.316406 Z M 11.105469 -13.535156 C 10.566406 -13.667969 10.074219 -13.308594 9.9375 -12.769531 C 9.578125 -10.613281 7.960938 -4.40625 5.574219 -2.96875 C 3.777344 -1.886719 3.238281 -4.675781 3.238281 -5.800781 C 3.101562 -10.117188 4.902344 -14.164062 4.675781 -18.390625 L 4.632812 -19.246094 L 4.363281 -19.378906 C 4.003906 -19.695312 3.957031 -19.648438 3.820312 -19.695312 C 3.6875 -19.738281 3.640625 -19.695312 3.328125 -19.335938 L 3.328125 -19.515625 C 3.371094 -19.695312 3.28125 -19.695312 3.148438 -19.558594 C 3.011719 -19.515625 2.339844 -19.828125 1.976562 -19.515625 C 1.617188 -19.15625 0.855469 -16.546875 0.585938 -15.648438 C 0.0898438 -14.210938 -0.226562 -12.996094 -0.539062 -11.375 C -1.078125 -8.992188 -1.257812 -7.507812 -1.125 -6.070312 C -0.808594 -2.699219 1.394531 -0.71875 4.675781 -0.71875 C 8.050781 -0.71875 9.800781 -5.394531 10.65625 -7.824219 C 11.511719 -10.207031 11.871094 -12.277344 11.871094 -12.410156 C 12.007812 -12.949219 11.601562 -13.398438 11.105469 -13.535156 Z M 0.136719 -4.855469 C 0 -4.855469 -0.269531 -5.980469 -0.269531 -6.386719 C -0.316406 -6.609375 -0.269531 -7.105469 -0.226562 -7.597656 C -0.179688 -7.824219 -0.179688 -8.050781 -0.136719 -8.183594 C -0.136719 -8.273438 -0.136719 -8.363281 -0.0898438 -8.410156 L -0.0898438 -6.835938 L 0.046875 -5.753906 C 0.0898438 -5.394531 0.0898438 -5.035156 0.136719 -4.992188 Z M 0.136719 -4.855469 "/></g></g></g><g fill="#000000" fill-opacity="1"><g transform="translate(189.445646, 42.209468)"><g><path d="M 22.753906 -13.578125 C 22.214844 -13.625 21.808594 -13.21875 21.671875 -12.679688 C 21.359375 -9.621094 20.910156 -6.65625 20.234375 -3.640625 C 19.738281 -1.617188 19.246094 0.046875 18.707031 1.257812 C 18.03125 2.832031 17.445312 3.417969 17.085938 3.460938 C 16.054688 0.539062 16.59375 -2.203125 17.085938 -5.214844 C 18.167969 -11.734375 18.347656 -13.308594 18.210938 -15.46875 C 17.988281 -18.480469 17.175781 -22.347656 13.488281 -21.988281 C 7.644531 -21.269531 7.507812 -12.5 6.609375 -8.320312 C 6.070312 -9.21875 6.65625 -22.167969 4.40625 -22.167969 C 4.316406 -22.167969 4.226562 -21.988281 4.09375 -21.671875 C 4.046875 -22.167969 3.957031 -22.394531 3.730469 -22.394531 L 3.597656 -22.304688 C 3.550781 -22.257812 3.507812 -22.214844 3.507812 -22.257812 C 3.507812 -22.347656 3.460938 -22.394531 3.371094 -22.394531 C 2.921875 -22.394531 2.203125 -18.929688 2.070312 -18.257812 C 2.070312 -18.121094 2.023438 -18.300781 2.023438 -18.617188 C 2.023438 -19.738281 2.25 -21.3125 2.5625 -21.988281 C 2.699219 -22.304688 2.742188 -22.347656 2.609375 -22.347656 C 2.382812 -22.347656 2.339844 -22.257812 2.023438 -21.761719 C 2.160156 -22.257812 2.023438 -22.214844 1.617188 -21.898438 C 0.898438 -21.402344 0.316406 -20.101562 0 -18.660156 C -0.316406 -17.085938 -0.226562 -14.660156 0.136719 -12.546875 C 0.628906 -9.757812 1.976562 -6.160156 3.191406 -4.363281 C 4.363281 -2.609375 6.96875 -1.214844 7.960938 -3.417969 C 8.949219 -7.058594 8.859375 -10.65625 9.800781 -14.253906 C 10.476562 -16.90625 11.554688 -19.15625 13.039062 -20.550781 C 13.894531 -18.570312 13.355469 -17.265625 12.996094 -15.0625 C 12.050781 -10.296875 10.703125 -5.082031 11.554688 -0.269531 C 12.050781 2.429688 13.894531 5.441406 16.863281 5.441406 C 22.527344 5.441406 23.15625 -10.613281 23.652344 -12.5 C 23.695312 -13.039062 23.292969 -13.445312 22.753906 -13.578125 Z M 7.105469 -6.296875 C 7.058594 -6.070312 7.058594 -5.84375 7.015625 -5.710938 C 6.96875 -5.574219 6.96875 -5.484375 6.96875 -5.441406 C 6.878906 -5.441406 6.878906 -5.484375 6.925781 -5.621094 C 6.925781 -5.753906 7.015625 -6.476562 7.148438 -7.328125 C 7.6875 -11.332031 8.363281 -14.882812 8.902344 -16.367188 C 9.128906 -16.996094 9.847656 -18.617188 9.890625 -18.570312 C 9.9375 -18.570312 9.847656 -18.300781 9.710938 -17.988281 C 9.039062 -16.59375 8.589844 -14.792969 8.09375 -12.277344 C 7.734375 -10.746094 7.238281 -7.734375 7.105469 -6.296875 Z M 10.253906 -17.625 C 9.488281 -15.691406 8.769531 -12.859375 8.273438 -9.621094 C 8.140625 -8.949219 8.09375 -8.453125 8.09375 -8.589844 C 8.09375 -9.171875 8.722656 -13.265625 9.21875 -15.0625 C 9.441406 -15.964844 10.253906 -18.03125 10.386719 -18.03125 C 10.433594 -18.03125 10.386719 -17.804688 10.253906 -17.625 Z M 16.324219 -13.355469 C 16.367188 -13.847656 16.457031 -14.164062 16.457031 -14.121094 L 16.457031 -13.757812 C 16.457031 -13.535156 16.414062 -13.21875 16.414062 -12.90625 C 16.277344 -11.375 16.097656 -10.433594 15.738281 -7.6875 L 15.199219 -4.046875 C 14.882812 -2.113281 14.929688 -2.160156 14.929688 -2.519531 C 14.929688 -3.371094 15.378906 -7.195312 15.964844 -10.882812 C 16.097656 -11.78125 16.277344 -12.859375 16.324219 -13.355469 Z M 14.972656 -16.953125 C 14.929688 -16.816406 14.929688 -16.726562 14.929688 -16.59375 C 14.929688 -16.367188 14.882812 -16.007812 14.882812 -15.691406 C 14.839844 -15.019531 14.703125 -13.578125 14.570312 -12.5 C 14.210938 -10.207031 14.164062 -10.164062 13.804688 -7.554688 C 13.625 -6.519531 13.488281 -5.304688 13.355469 -4.8125 L 13.265625 -4.003906 L 13.308594 -4.945312 C 13.355469 -6.339844 13.578125 -8.230469 13.984375 -10.65625 C 14.210938 -11.871094 14.480469 -13.667969 14.660156 -14.882812 C 14.792969 -16.007812 14.929688 -16.953125 14.972656 -16.953125 Z M 13.714844 -14.253906 C 13.894531 -15.511719 14.074219 -16.457031 14.121094 -16.324219 C 14.121094 -16.1875 14.121094 -15.648438 13.984375 -15.109375 C 13.039062 -9.308594 12.589844 -6.519531 12.546875 -6.878906 C 12.546875 -7.148438 12.859375 -8.992188 13.085938 -10.613281 Z M 13.714844 -14.253906 "/></g></g></g><g fill="#000000" fill-opacity="1"><g transform="translate(211.118458, 42.209468)"><g><path d="M 18.167969 -13.535156 C 17.671875 -13.667969 17.175781 -13.265625 17.042969 -12.726562 C 16.90625 -11.960938 16.726562 -11.195312 16.546875 -10.34375 C 16.234375 -8.902344 15.78125 -7.058594 15.242188 -5.125 C 14.75 -3.640625 14.34375 -2.203125 13.847656 -1.125 L 13.085938 0.628906 C 12.949219 0.945312 12.589844 1.617188 12.457031 1.753906 L 12.410156 1.753906 C 11.691406 -4.8125 12.097656 -8.769531 12.320312 -18.480469 C 14.839844 -21.628906 18.527344 -25.496094 17.085938 -27.519531 C 16.144531 -28.824219 13.941406 -28.644531 12.816406 -27.742188 C 10.792969 -26.214844 9.9375 -23.335938 9.171875 -21.089844 C 8.859375 -20.191406 8.679688 -19.289062 8.320312 -18.4375 C 6.117188 -18.300781 4.316406 -17.582031 2.832031 -16.636719 C -0.628906 -14.390625 -1.933594 -8.679688 -0.136719 -5.304688 C 0.40625 -4.183594 0.988281 -3.777344 2.023438 -3.460938 C 3.507812 -3.101562 5.125 -3.597656 6.207031 -4.8125 C 6.476562 -5.082031 6.699219 -5.394531 6.925781 -5.710938 C 6.878906 -4.675781 6.878906 -3.777344 6.925781 -2.96875 C 7.105469 -0.585938 7.417969 0.628906 8.09375 2.023438 C 9.53125 4.765625 13.039062 5.082031 14.480469 2.25 C 15.242188 0.988281 16.1875 -1.214844 17.3125 -5.214844 C 17.804688 -7.015625 18.210938 -8.769531 18.527344 -10.164062 L 18.976562 -12.367188 C 19.109375 -12.90625 18.707031 -13.398438 18.167969 -13.535156 Z M 0.898438 -11.960938 C 0.71875 -11.421875 0.539062 -11.105469 0.539062 -11.242188 C 0.539062 -11.734375 1.125 -13.535156 1.84375 -14.164062 C 1.527344 -13.578125 1.214844 -12.816406 0.898438 -11.960938 Z M 7.375 -12.769531 C 6.878906 -10.835938 5.441406 -7.960938 5.441406 -7.960938 C 6.429688 -9.890625 8.140625 -15.691406 7.644531 -13.757812 C 7.507812 -13.398438 7.507812 -13.085938 7.375 -12.769531 Z M 16.007812 -25.71875 C 15.875 -25.226562 15.46875 -24.417969 14.972656 -23.5625 C 14.613281 -22.84375 13.21875 -21.042969 13.175781 -21 C 13.175781 -21.042969 13.308594 -21.222656 13.445312 -21.449219 C 14.523438 -22.886719 15.558594 -24.777344 15.917969 -25.992188 C 16.054688 -26.394531 16.144531 -26.214844 16.007812 -25.71875 Z M 15.152344 -27.25 C 16.773438 -25.992188 12.367188 -20.863281 12.636719 -21.132812 C 12.679688 -21.179688 12.996094 -22.84375 13.355469 -23.96875 C 13.488281 -24.507812 14.613281 -27.25 15.152344 -27.25 Z M 13.308594 -26.261719 C 13.445312 -26.394531 11.734375 -22.304688 11.242188 -19.785156 L 11.105469 -19.246094 L 11.152344 -19.738281 C 11.285156 -20.460938 11.601562 -22.125 11.960938 -23.335938 C 12.277344 -24.417969 12.90625 -25.765625 13.308594 -26.261719 Z M 12.726562 -26.621094 C 12.5 -26.261719 11.871094 -25 11.375 -23.96875 C 10.792969 -22.664062 10.253906 -20.820312 9.757812 -18.4375 C 9.757812 -18.210938 9.667969 -18.03125 9.667969 -17.851562 C 9.53125 -18.078125 9.710938 -19.199219 9.847656 -19.695312 C 10.566406 -22.933594 11.015625 -24.011719 11.871094 -25.449219 C 12.230469 -26.125 12.679688 -26.664062 12.726562 -26.621094 Z M 11.644531 -25.765625 C 11.644531 -25.675781 11.554688 -25.496094 11.375 -25.179688 C 10.164062 -22.84375 9.847656 -20.414062 8.992188 -18.03125 C 9.351562 -20.863281 10.253906 -23.472656 11.644531 -25.765625 Z M 3.460938 -5.800781 C 2.96875 -7.375 2.832031 -8.769531 2.96875 -10.074219 C 3.28125 -12.90625 4.632812 -14.929688 7.058594 -16.1875 C 7.824219 -16.59375 7.914062 -16.636719 7.867188 -16.414062 C 7.644531 -14.882812 6.519531 -11.242188 5.664062 -9.441406 C 5.125 -8.183594 4.363281 -6.699219 3.460938 -5.800781 Z M 5.171875 -6.65625 C 5.933594 -7.914062 6.746094 -9.847656 7.417969 -11.871094 C 7.238281 -10.65625 6.878906 -9.488281 6.339844 -8.363281 C 6.027344 -7.6875 5.441406 -6.789062 5.125 -6.386719 C 4.8125 -6.070312 4.855469 -6.117188 5.171875 -6.65625 Z M 7.105469 -8.410156 C 7.058594 -8.273438 7.058594 -8.003906 7.058594 -7.6875 L 6.386719 -6.566406 C 5.890625 -5.890625 5.800781 -5.753906 6.117188 -6.429688 Z M 7.105469 -8.410156 "/></g></g></g><g fill="#000000" fill-opacity="1"><g transform="translate(228.159949, 42.209468)"><g><path d="M 14.480469 -13.488281 C 13.941406 -13.667969 13.398438 -13.398438 13.21875 -12.90625 C 13.21875 -12.859375 12.816406 -11.734375 11.917969 -10.613281 C 11.375 -9.890625 10.703125 -9.351562 9.890625 -9.039062 C 10.027344 -9.9375 10.117188 -12.097656 10.117188 -13.039062 C 9.9375 -15.421875 9.21875 -17.265625 7.960938 -18.570312 C 7.375 -19.246094 6.296875 -19.921875 5.800781 -20.144531 C 3.820312 -21.089844 1.4375 -19.964844 0.628906 -18.796875 C 0.136719 -18.210938 0.046875 -17.898438 -0.179688 -17.042969 C -0.496094 -16.097656 -0.40625 -14.929688 -0.046875 -13.894531 C 0.179688 -13.21875 0.226562 -13.21875 0.0898438 -12.859375 C -0.136719 -12.007812 -0.40625 -9.9375 -0.539062 -8.140625 C -0.675781 -6.207031 0.0898438 -4.226562 1.214844 -3.28125 C 4.675781 -0.40625 7.6875 -2.652344 9.128906 -6.117188 L 9.308594 -6.789062 C 10.925781 -7.058594 12.320312 -7.960938 13.488281 -9.441406 C 14.570312 -10.835938 15.0625 -12.1875 15.0625 -12.230469 C 15.242188 -12.769531 14.972656 -13.308594 14.480469 -13.488281 Z M 1.84375 -16.636719 C 1.886719 -17.355469 2.160156 -17.941406 2.5625 -18.347656 C 3.730469 -19.515625 5.664062 -18.480469 6.386719 -17.492188 C 7.417969 -16.277344 7.914062 -14.523438 7.960938 -12.277344 C 7.960938 -11.015625 7.914062 -10.164062 7.597656 -9.082031 L 7.507812 -8.722656 C 5.753906 -9.039062 4.675781 -10.074219 4.003906 -11.015625 L 4.40625 -12.859375 C 4.992188 -15.964844 5.035156 -15.828125 4.8125 -16.1875 L 4.632812 -16.457031 L 4.542969 -16.277344 C 4.316406 -15.964844 4.585938 -16.90625 4.09375 -16.414062 C 3.957031 -16.277344 3.910156 -16.324219 3.777344 -16.1875 C 3.640625 -16.007812 3.867188 -16.546875 3.867188 -16.683594 C 3.867188 -16.816406 3.6875 -16.726562 3.550781 -16.59375 C 3.460938 -16.324219 3.597656 -17.042969 3.191406 -16.636719 L 2.96875 -16.414062 C 2.789062 -16.277344 2.742188 -16.234375 2.789062 -16.234375 C 2.652344 -16.097656 2.832031 -16.503906 2.832031 -16.636719 C 2.789062 -16.636719 2.609375 -16.546875 2.292969 -16.414062 L 1.796875 -16.1875 Z M 5.394531 -4.496094 C 5.125 -4.226562 3.460938 -8.140625 3.910156 -8.140625 C 3.730469 -8.140625 5.664062 -6.699219 6.835938 -6.835938 C 6.609375 -6.339844 5.753906 -4.722656 5.394531 -4.496094 Z M 5.394531 -4.496094 "/></g></g></g></svg>