<svg width="30" height="30" viewBox="0 0 30 30" fill="none" xmlns="http://www.w3.org/2000/svg">
<g clip-path="url(#clip0_16_34)">
<path d="M29.1469 12.296C29.322 13.3028 29.4092 14.3229 29.4075 15.3448C29.4075 19.9085 27.7763 23.7673 24.9375 26.3792H24.9412C22.4587 28.6723 19.0462 29.9998 15 29.9998C11.0218 29.9998 7.20644 28.4194 4.3934 25.6064C1.58035 22.7934 0 18.978 0 14.9998C0 11.0215 1.58035 7.20624 4.3934 4.3932C7.20644 1.58015 11.0218 -0.000202378 15 -0.000202378C18.7232 -0.041666 22.3185 1.35695 25.035 3.90355L20.7525 8.18605C19.2041 6.71089 17.1383 5.90289 15 5.93605C11.0869 5.93605 7.7625 8.57605 6.5775 12.131C5.9503 13.9941 5.9503 16.0112 6.5775 17.8742H6.58312C7.77375 21.4235 11.0925 24.0635 15.0056 24.0635C17.0269 24.0635 18.7631 23.546 20.1094 22.631H20.1038C20.8856 22.1133 21.5544 21.4425 22.0697 20.6591C22.585 19.8756 22.9361 18.9959 23.1019 18.0729H15V12.2979L29.1469 12.296Z" fill="black"/>
</g>
<defs>
<clipPath id="clip0_16_34">
<rect width="30" height="30" fill="white"/>
</clipPath>
</defs>
</svg>
