<svg width="37" height="37" viewBox="0 0 37 37" fill="none" xmlns="http://www.w3.org/2000/svg">
<g clip-path="url(#clip0_73_1788)">
<path fill-rule="evenodd" clip-rule="evenodd" d="M2.3125 18.5C2.3125 22.7932 4.01796 26.9105 7.05371 29.9463C10.0895 32.982 14.2068 34.6875 18.5 34.6875C22.7932 34.6875 26.9105 32.982 29.9463 29.9463C32.982 26.9105 34.6875 22.7932 34.6875 18.5C34.6875 14.2068 32.982 10.0895 29.9463 7.05371C26.9105 4.01796 22.7932 2.3125 18.5 2.3125C14.2068 2.3125 10.0895 4.01796 7.05371 7.05371C4.01796 10.0895 2.3125 14.2068 2.3125 18.5ZM37 18.5C37 23.4065 35.0509 28.1121 31.5815 31.5815C28.1121 35.0509 23.4065 37 18.5 37C13.5935 37 8.88795 35.0509 5.41852 31.5815C1.9491 28.1121 0 23.4065 0 18.5C0 13.5935 1.9491 8.88795 5.41852 5.41852C8.88795 1.9491 13.5935 0 18.5 0C23.4065 0 28.1121 1.9491 31.5815 5.41852C35.0509 8.88795 37 13.5935 37 18.5ZM26.5938 17.3438C26.9004 17.3438 27.1945 17.4656 27.4113 17.6824C27.6282 17.8992 27.75 18.1933 27.75 18.5C27.75 18.8067 27.6282 19.1008 27.4113 19.3176C27.1945 19.5344 26.9004 19.6562 26.5938 19.6562H13.1974L18.1624 24.6189C18.2699 24.7264 18.3552 24.854 18.4133 24.9945C18.4715 25.1349 18.5015 25.2855 18.5015 25.4375C18.5015 25.5895 18.4715 25.7401 18.4133 25.8805C18.3552 26.021 18.2699 26.1486 18.1624 26.2561C18.0549 26.3636 17.9272 26.4489 17.7868 26.5071C17.6463 26.5653 17.4958 26.5952 17.3438 26.5952C17.1917 26.5952 17.0412 26.5653 16.9007 26.5071C16.7603 26.4489 16.6326 26.3636 16.5251 26.2561L9.58762 19.3186C9.47995 19.2112 9.39452 19.0836 9.33623 18.9432C9.27794 18.8027 9.24793 18.6521 9.24793 18.5C9.24793 18.3479 9.27794 18.1973 9.33623 18.0568C9.39452 17.9164 9.47995 17.7888 9.58762 17.6814L16.5251 10.7439C16.7422 10.5268 17.0367 10.4048 17.3438 10.4048C17.6508 10.4048 17.9453 10.5268 18.1624 10.7439C18.3795 10.961 18.5015 11.2555 18.5015 11.5625C18.5015 11.8695 18.3795 12.164 18.1624 12.3811L13.1974 17.3438H26.5938Z" fill="black"/>
</g>
<defs>
<clipPath id="clip0_73_1788">
<rect width="37" height="37" fill="white"/>
</clipPath>
</defs>
</svg>
