<svg width="29" height="29" viewBox="0 0 29 29" fill="none" xmlns="http://www.w3.org/2000/svg">
<path fill-rule="evenodd" clip-rule="evenodd" d="M14.5 1.81259C14.2596 1.81259 14.0291 1.90807 13.8592 2.07803C13.6892 2.24798 13.5937 2.47849 13.5937 2.71884L13.5937 24.0937L7.89161 18.3897C7.80735 18.3055 7.70732 18.2386 7.59723 18.193C7.48714 18.1474 7.36915 18.1239 7.24998 18.1239C7.13082 18.1239 7.01283 18.1474 6.90274 18.193C6.79265 18.2386 6.69262 18.3055 6.60836 18.3897C6.5241 18.474 6.45726 18.574 6.41166 18.6841C6.36606 18.7942 6.34259 18.9122 6.34259 19.0313C6.34259 19.1505 6.36606 19.2685 6.41166 19.3786C6.45726 19.4887 6.5241 19.5887 6.60836 19.673L13.8584 26.923C13.9425 27.0074 14.0425 27.0743 14.1526 27.12C14.2627 27.1657 14.3808 27.1892 14.5 27.1892C14.6192 27.1892 14.7372 27.1657 14.8473 27.12C14.9574 27.0743 15.0574 27.0074 15.1416 26.923L22.3916 19.673C22.4759 19.5887 22.5427 19.4887 22.5883 19.3786C22.6339 19.2685 22.6574 19.1505 22.6574 19.0313C22.6574 18.9122 22.6339 18.7942 22.5883 18.6841C22.5427 18.574 22.4759 18.474 22.3916 18.3897C22.3073 18.3055 22.2073 18.2386 22.0972 18.193C21.9871 18.1474 21.8691 18.1239 21.75 18.1239C21.6308 18.1239 21.5128 18.1474 21.4027 18.193C21.2926 18.2386 21.1926 18.3055 21.1084 18.3897L15.4062 24.0937L15.4062 2.71884C15.4062 2.47849 15.3108 2.24798 15.1408 2.07803C14.9708 1.90807 14.7403 1.81259 14.5 1.81259Z" fill="#823411"/>
</svg>
