<svg width="38" height="38" viewBox="0 0 38 38" fill="none" xmlns="http://www.w3.org/2000/svg">
<g clip-path="url(#clip0_261_144)">
<path d="M26.125 14.25C26.125 16.1397 25.3743 17.9519 24.0381 19.2881C22.7019 20.6243 20.8897 21.375 19 21.375C17.1103 21.375 15.2981 20.6243 13.9619 19.2881C12.6257 17.9519 11.875 16.1397 11.875 14.25C11.875 12.3603 12.6257 10.5481 13.9619 9.21186C15.2981 7.87567 17.1103 7.125 19 7.125C20.8897 7.125 22.7019 7.87567 24.0381 9.21186C25.3743 10.5481 26.125 12.3603 26.125 14.25Z" fill="black"/>
<path fill-rule="evenodd" clip-rule="evenodd" d="M0 19C0 13.9609 2.00178 9.12816 5.56497 5.56497C9.12816 2.00178 13.9609 0 19 0C24.0391 0 28.8718 2.00178 32.435 5.56497C35.9982 9.12816 38 13.9609 38 19C38 24.0391 35.9982 28.8718 32.435 32.435C28.8718 35.9982 24.0391 38 19 38C13.9609 38 9.12816 35.9982 5.56497 32.435C2.00178 28.8718 0 24.0391 0 19ZM19 2.375C15.8692 2.37517 12.8021 3.25936 10.1517 4.92582C7.50129 6.59227 5.3753 8.97325 4.01841 11.7947C2.66153 14.6162 2.12892 17.7634 2.48187 20.8742C2.83482 23.9851 4.059 26.933 6.0135 29.3787C7.69975 26.6617 11.4119 23.75 19 23.75C26.5881 23.75 30.2979 26.6594 31.9865 29.3787C33.941 26.933 35.1652 23.9851 35.5181 20.8742C35.8711 17.7634 35.3385 14.6162 33.9816 11.7947C32.6247 8.97325 30.4987 6.59227 27.8483 4.92582C25.1979 3.25936 22.1308 2.37517 19 2.375Z" fill="black"/>
</g>
<defs>
<clipPath id="clip0_261_144">
<rect width="38" height="38" fill="white"/>
</clipPath>
</defs>
</svg>
