<svg width="47" height="47" viewBox="0 0 47 47" fill="none" xmlns="http://www.w3.org/2000/svg">
<path fill-rule="evenodd" clip-rule="evenodd" d="M7.34375 35.25C7.34375 34.8605 7.49849 34.4869 7.77394 34.2114C8.04938 33.936 8.42296 33.7812 8.8125 33.7812H38.1875C38.577 33.7812 38.9506 33.936 39.2261 34.2114C39.5015 34.4869 39.6562 34.8605 39.6562 35.25C39.6562 35.6395 39.5015 36.0131 39.2261 36.2886C38.9506 36.564 38.577 36.7188 38.1875 36.7188H8.8125C8.42296 36.7188 8.04938 36.564 7.77394 36.2886C7.49849 36.0131 7.34375 35.6395 7.34375 35.25ZM7.34375 23.5C7.34375 23.1105 7.49849 22.7369 7.77394 22.4614C8.04938 22.186 8.42296 22.0312 8.8125 22.0312H38.1875C38.577 22.0312 38.9506 22.186 39.2261 22.4614C39.5015 22.7369 39.6562 23.1105 39.6562 23.5C39.6562 23.8895 39.5015 24.2631 39.2261 24.5386C38.9506 24.814 38.577 24.9688 38.1875 24.9688H8.8125C8.42296 24.9688 8.04938 24.814 7.77394 24.5386C7.49849 24.2631 7.34375 23.8895 7.34375 23.5ZM7.34375 11.75C7.34375 11.3605 7.49849 10.9869 7.77394 10.7114C8.04938 10.436 8.42296 10.2812 8.8125 10.2812H38.1875C38.577 10.2812 38.9506 10.436 39.2261 10.7114C39.5015 10.9869 39.6562 11.3605 39.6562 11.75C39.6562 12.1395 39.5015 12.5131 39.2261 12.7886C38.9506 13.064 38.577 13.2188 38.1875 13.2188H8.8125C8.42296 13.2188 8.04938 13.064 7.77394 12.7886C7.49849 12.5131 7.34375 12.1395 7.34375 11.75Z" fill="black"/>
</svg>
