<svg width="30" height="30" viewBox="0 0 30 30" fill="none" xmlns="http://www.w3.org/2000/svg">
<g clip-path="url(#clip0_16_38)">
<path d="M9.42375 28.125C20.745 28.125 26.9381 18.7443 26.9381 10.6237C26.9406 10.36 26.9369 10.0962 26.9269 9.83246C28.1322 8.95916 29.1728 7.87861 30 6.64121C28.8733 7.13672 27.68 7.46396 26.4581 7.61246C27.7455 6.84316 28.7096 5.63248 29.1712 4.20558C27.9624 4.92318 26.6385 5.42623 25.2581 5.69246C24.3303 4.70438 23.1026 4.0498 21.7652 3.83013C20.4277 3.61045 19.0551 3.83793 17.86 4.47734C16.6649 5.11674 15.714 6.13239 15.1546 7.36694C14.5952 8.6015 14.4585 9.98608 14.7656 11.3062C12.3181 11.1841 9.92371 10.5485 7.7378 9.44089C5.5519 8.33324 3.62339 6.77823 2.0775 4.87683C1.29296 6.23272 1.05366 7.8363 1.40814 9.36217C1.76262 10.888 2.68433 12.2219 3.98625 13.0931C3.01014 13.0615 2.05536 12.7994 1.2 12.3281V12.4125C1.20239 13.8325 1.69466 15.2083 2.59373 16.3076C3.4928 17.4068 4.7436 18.1622 6.135 18.4462C5.60676 18.5918 5.06106 18.6644 4.51312 18.6618C4.12672 18.6658 3.74094 18.63 3.36188 18.555C3.75449 19.778 4.52021 20.8474 5.55157 21.6131C6.58293 22.3788 7.82816 22.8024 9.1125 22.8243C6.93019 24.5362 4.23609 25.4652 1.4625 25.4625C0.973685 25.4661 0.485149 25.438 0 25.3781C2.81517 27.1733 6.08487 28.1264 9.42375 28.125Z" fill="black"/>
</g>
<defs>
<clipPath id="clip0_16_38">
<rect width="30" height="30" fill="white"/>
</clipPath>
</defs>
</svg>
