<svg width="38" height="38" viewBox="0 0 38 38" fill="none" xmlns="http://www.w3.org/2000/svg">
<path d="M7.125 33.25C7.125 33.25 4.75 33.25 4.75 30.875C4.75 28.5 7.125 21.375 19 21.375C30.875 21.375 33.25 28.5 33.25 30.875C33.25 33.25 30.875 33.25 30.875 33.25H7.125ZM19 19C20.8897 19 22.7019 18.2493 24.0381 16.9131C25.3743 15.5769 26.125 13.7647 26.125 11.875C26.125 9.98533 25.3743 8.17306 24.0381 6.83686C22.7019 5.50067 20.8897 4.75 19 4.75C17.1103 4.75 15.2981 5.50067 13.9619 6.83686C12.6257 8.17306 11.875 9.98533 11.875 11.875C11.875 13.7647 12.6257 15.5769 13.9619 16.9131C15.2981 18.2493 17.1103 19 19 19Z" fill="black"/>
</svg>
